<svg width="63" height="46" viewBox="0 0 63 46" fill="none" xmlns="http://www.w3.org/2000/svg">
<g id="Group">
<path id="Vector" d="M31.5 13.34L59.245 42.32C60.95 38.4867 61.88 34.3467 61.88 30.0533C61.88 13.4933 48.24 0 31.5 0C14.76 0 1.12 13.4933 1.12 30.0533C1.12 34.5 2.05 38.64 3.755 42.32L31.5 13.34Z" fill="#D40201"/>
<g id="Group_2">
<g id="Clip path group">
<mask id="mask0_160_133" style="mask-type:luminance" maskUnits="userSpaceOnUse" x="1" y="13" width="59" height="18">
<g id="SVGID_2_">
<path id="Vector_2" d="M16.93 28.9801L26.23 18.8601L37.08 19.1668L47.93 30.8201L58.315 30.0534L59.865 21.1601L31.5 13.3401L1.12 19.6268V30.0534L16.93 28.9801Z" fill="white"/>
</g>
</mask>
<g mask="url(#mask0_160_133)">
<g id="Group_3">
<path id="Vector_3" d="M9.02503 20.24C9.64503 20.0867 10.42 20.3934 11.04 20.3934C11.35 20.3934 11.97 20.5467 12.125 20.3934C12.745 20.0867 11.97 19.78 11.97 20.0867H12.125C12.125 20.3934 11.195 20.24 11.66 19.6267C11.815 19.32 12.59 19.1667 12.9 19.32C13.21 19.4734 13.365 20.0867 13.83 20.0867C14.295 20.0867 14.76 19.6267 14.915 19.32C15.38 18.4 16.155 17.94 17.24 17.7867C18.17 17.7867 19.565 18.2467 19.1 19.32C18.945 19.78 18.48 20.0867 18.015 19.9334C17.86 19.9334 17.705 19.78 17.705 19.4734C17.705 19.32 17.86 18.86 18.015 19.1667C18.17 19.32 18.015 19.6267 18.48 19.4734C18.635 19.32 18.325 19.1667 18.17 19.0134C17.705 18.7067 17.24 19.1667 17.395 19.6267C17.395 20.5467 18.79 21.0067 19.41 20.7C19.72 20.5467 19.875 20.24 20.03 20.0867V19.9334C20.03 19.78 20.185 19.6267 20.185 19.6267C20.34 19.32 20.495 18.86 20.96 18.7067C21.27 18.5534 21.58 18.7067 21.735 18.86H21.89C21.735 18.0934 21.735 17.02 22.51 16.56C23.285 16.1 24.215 16.1 24.99 16.56C25.3 15.9467 26.23 16.1 26.695 16.2534C27.315 16.4067 27.78 16.7134 28.09 17.3267C28.4 17.7867 28.555 20.0867 31.965 18.86C35.53 17.48 37.855 18.4 38.01 18.86C38.63 21.0067 38.32 20.7 38.63 21.0067C39.405 21.7734 40.335 21.0067 40.49 21.3134C41.11 22.6934 40.335 22.8467 39.87 22.8467C39.405 22.8467 38.94 22.54 38.32 22.54C37.855 22.3867 37.39 22.3867 36.925 22.6934C36.77 22.8467 36.615 23 36.305 23C35.995 23 35.84 22.8467 35.685 22.8467C35.22 22.8467 35.22 23.46 34.6 23.6134C33.98 23.7667 33.67 23.3067 33.67 22.6934C33.67 22.2334 33.98 21.7734 33.515 21.4667L33.36 21.62C33.05 21.7734 32.895 21.4667 32.74 21.4667C32.275 21.4667 31.655 21.9267 32.275 22.3867C32.585 22.6934 33.515 22.3867 33.05 23C32.74 23.3067 32.12 23.6134 31.655 23.46C31.035 23.46 30.725 23 30.88 22.3867C30.88 21.62 28.4 22.6934 27.315 23.7667C26.385 24.6867 23.905 24.5334 22.82 23.6134C22.51 23.3067 22.355 22.6934 22.82 22.3867C22.975 22.2334 24.06 22.08 24.06 22.54C24.06 22.8467 23.13 20.8534 22.2 21.3134C21.735 21.4667 21.425 21.7734 21.115 22.2334C21.115 22.3867 20.96 22.3867 20.805 22.3867C20.65 22.54 20.65 22.8467 20.34 23C19.72 23.46 19.1 23.7667 18.48 23.7667C17.86 23.7667 17.55 23 18.325 22.08C17.86 22.3867 16.31 22.6934 16.31 22.08C16.31 21.62 16.93 21.16 16.155 20.8534C15.07 20.5467 14.76 21.62 14.295 21.7734C13.675 22.08 13.055 21.7734 12.59 21.4667C12.435 21.3134 12.125 21.16 11.97 21.3134C11.815 21.3134 11.66 21.62 11.505 21.62C11.04 21.62 10.73 21.16 10.11 21.3134C9.64503 21.4667 9.80003 21.62 9.33503 21.62C8.40503 21.3134 8.09503 20.3934 9.02503 20.24Z" fill="white"/>
</g>
</g>
</g>
<g id="Clip path group_2">
<mask id="mask1_160_133" style="mask-type:luminance" maskUnits="userSpaceOnUse" x="1" y="13" width="59" height="18">
<g id="SVGID_2__2">
<path id="Vector_4" d="M16.93 28.9801L26.23 18.8601L37.08 19.1668L47.93 30.8201L58.315 30.0534L59.865 21.1601L31.5 13.3401L1.12 19.6268V30.0534L16.93 28.9801Z" fill="white"/>
</g>
</mask>
<g mask="url(#mask1_160_133)">
<path id="Vector_5" d="M51.65 20.7002C51.03 20.5468 50.565 20.8535 49.945 20.8535C49.635 20.8535 49.17 21.0068 49.015 20.8535C48.55 20.5468 49.17 20.2402 49.17 20.5468H49.015C49.015 20.8535 49.79 20.7002 49.48 20.0868C49.325 19.7802 48.705 19.6268 48.395 19.7802C48.085 19.9335 48.085 20.3935 47.62 20.5468C47.155 20.5468 46.845 20.2402 46.69 19.9335C46.225 19.0135 45.605 18.7068 44.675 18.5535C44.365 18.5535 44.055 18.5535 43.745 18.7068C42.97 18.7068 42.04 18.7068 40.8 19.1668C40.955 18.5535 40.8 17.6335 40.18 17.3268C39.56 16.8668 38.785 17.0202 38.165 17.3268C37.855 16.8668 37.235 16.8668 36.77 17.0202C36.615 17.0202 36.305 17.1735 36.15 17.3268C35.995 17.3268 35.995 17.1735 35.84 17.1735C35.375 17.0202 34.6 17.0202 34.445 17.4802C33.825 17.1735 33.05 17.1735 32.43 17.4802C31.81 17.7868 31.81 18.4002 31.81 19.0135C30.26 18.5535 28.865 18.5535 28.09 18.7068C28.09 18.7068 28.09 18.7068 27.935 18.7068C27.005 18.7068 26.385 19.1668 25.92 20.0868C25.765 20.3935 25.455 20.8535 24.99 20.7002C24.525 20.7002 24.525 20.2402 24.215 19.9335C23.905 19.7802 23.44 19.9335 23.13 20.2402C22.82 20.7002 23.595 21.0068 23.595 20.7002H23.44C23.44 20.3935 24.06 20.7002 23.595 21.0068C23.285 21.1602 22.82 21.0068 22.665 21.0068C22.045 21.0068 21.58 20.7002 20.96 20.8535C20.185 21.0068 20.495 21.7735 21.115 21.7735C21.58 21.7735 21.425 21.6202 21.735 21.4668C22.2 21.3135 22.51 21.7735 22.975 21.7735C23.13 21.7735 23.285 21.6202 23.44 21.4668C23.595 21.4668 23.75 21.4668 23.905 21.6202C24.06 21.7735 24.37 21.9268 24.68 21.9268C24.525 22.6935 25.145 22.6935 25.455 22.6935C25.92 22.6935 26.23 22.5402 26.695 22.3868C27.005 22.3868 27.16 22.2335 27.315 22.3868C27.47 22.3868 27.625 22.5402 27.78 22.5402C27.935 22.6935 28.09 22.8468 28.245 22.8468C28.245 23.1535 28.4 23.4602 28.71 23.4602C29.02 23.4602 29.175 23.3068 29.485 23.3068C29.485 23.3068 29.485 23.3068 29.64 23.3068C30.105 23.3068 30.415 23.1535 30.415 22.6935C30.57 22.5402 30.725 22.3868 30.725 22.2335L30.88 22.0802C31.035 21.7735 31.345 21.6202 31.5 21.4668C31.81 21.6202 31.81 21.9268 31.655 22.0802C31.345 22.2335 30.57 22.0802 31.035 22.5402C31.345 22.8468 31.81 23.0002 32.12 23.0002C32.12 23.1535 32.275 23.1535 32.275 23.3068C33.05 24.0735 35.22 24.2268 35.995 23.4602C36.925 24.0735 38.785 23.9202 39.56 23.1535C39.56 23.1535 39.56 23.1535 39.715 23.1535C40.18 23.1535 40.645 23.0002 40.8 22.6935C41.265 22.0802 40.49 22.3868 40.18 22.2335C39.87 21.9268 40.18 21.4668 40.49 21.4668C40.645 21.6202 40.8 21.7735 40.955 21.9268L41.11 22.0802C41.265 22.2335 41.265 22.3868 41.42 22.5402C41.42 23.0002 41.575 23.3068 42.195 23.3068C42.35 23.3068 42.505 23.1535 42.505 23.1535C42.66 23.1535 42.815 23.1535 42.97 23.3068C43.28 23.3068 43.435 23.1535 43.435 23.0002C43.435 23.0002 43.435 23.0002 43.59 23.0002C43.9 23.0002 43.9 22.8468 44.055 22.6935C44.365 22.3868 44.83 22.3868 45.295 22.5402C45.76 22.6935 46.07 22.8468 46.535 22.8468C46.845 22.8468 47.465 22.6935 47.155 21.7735C47.465 21.7735 47.775 21.6202 47.93 21.4668C48.085 21.3135 48.24 21.3135 48.395 21.3135C48.55 21.3135 48.55 21.6202 48.86 21.6202C49.17 21.6202 49.635 21.1602 50.1 21.3135C50.41 21.4668 50.41 21.6202 50.72 21.6202C52.115 21.6202 52.425 20.8535 51.65 20.7002ZM25.92 21.4668C26.075 21.3135 26.23 21.1602 26.54 21.1602C26.385 21.3135 26.23 21.4668 25.92 21.4668ZM33.205 22.2335C33.205 22.2335 33.205 22.0802 33.36 22.0802L33.515 22.2335C33.36 22.2335 33.205 22.2335 33.205 22.2335ZM46.225 21.3135C46.07 21.1602 46.07 21.1602 46.07 21.0068C46.535 21.0068 46.845 21.3135 47 21.6202C46.69 21.6202 46.38 21.6202 46.225 21.3135Z" fill="white"/>
</g>
</g>
</g>
<g id="Group_4">
<path id="Vector_6" d="M1.27501 46L12.28 34.5L39.25 6.59338L38.475 5.98005L37.7 5.21338L11.66 33.8867L0.965007 45.54C0.965007 45.54 0.810007 45.6934 0.965007 45.8467C1.12001 46 1.27501 46 1.27501 46Z" fill="black"/>
<path id="Vector_7" d="M61.725 46L50.72 34.5L23.905 6.59338L24.68 5.98005L25.3 5.21338L51.495 33.8867L62.19 45.54C62.19 45.54 62.345 45.6934 62.19 45.8467C61.88 46 61.725 46 61.725 46Z" fill="black"/>
</g>
</g>
</svg>
