<svg width="47" height="42" viewBox="0 0 47 42" fill="none" xmlns="http://www.w3.org/2000/svg">
<g id="Frame" clip-path="url(#clip0_88_7797)">
<g id="Group">
<path id="Vector" d="M4.93316 17.2036C3.95497 17.8686 3.0263 18.5093 2.08525 19.138C1.94904 19.2347 1.81284 19.3314 1.66425 19.4161C1.13182 19.7062 0.537469 19.4281 0.525087 18.8357C0.500322 17.8565 0.48794 16.8772 0.537469 15.8979C0.549851 15.6561 0.809878 15.366 1.04514 15.2088C4.04164 13.1414 7.06291 11.0862 10.0718 9.03091C14.3313 6.11726 18.5908 3.20362 22.8503 0.289976C23.4198 -0.0968982 23.5808 -0.0968982 24.138 0.277886C31.394 5.23471 38.65 10.2036 45.9184 15.1604C46.327 15.4385 46.5127 15.7649 46.5003 16.2485C46.4632 17.0585 46.5251 17.8807 46.4756 18.6907C46.4632 18.9566 46.2898 19.271 46.0917 19.4402C45.8193 19.682 45.485 19.537 45.2002 19.3314C44.1848 18.6302 43.1571 17.929 42.0799 17.1915C42.0799 24.2641 42.0799 31.2762 42.0799 38.3608C42.4018 38.3608 42.7485 38.3608 43.0952 38.3608C43.9248 38.3608 44.7668 38.3608 45.5964 38.3608C46.2032 38.3608 46.4756 38.6268 46.4879 39.2071C46.5003 39.8599 46.5003 40.5007 46.4879 41.1535C46.4756 41.6855 46.2032 41.9515 45.6583 41.9756C45.5469 41.9756 45.4478 41.9756 45.3364 41.9756C30.7873 41.9756 16.2381 41.9756 1.68902 41.9756C0.686056 41.9756 0.512705 41.8064 0.512705 40.815C0.512705 40.3072 0.512705 39.7874 0.512705 39.2796C0.512705 38.6026 0.772732 38.3608 1.46614 38.3608C2.6053 38.3608 3.74447 38.3608 4.92078 38.3608C4.93316 31.3366 4.93316 24.3124 4.93316 17.2036ZM40.5569 38.3608C40.5569 38.2278 40.5569 38.119 40.5569 38.0223C40.5569 30.8651 40.5569 23.6958 40.5692 16.5387C40.5692 16.2606 40.4702 16.1034 40.2473 15.9584C34.7743 12.2347 29.3138 8.49896 23.8532 4.75112C23.6056 4.58186 23.4446 4.55768 23.1722 4.73903C17.724 8.47478 12.2758 12.1984 6.82764 15.91C6.54285 16.1034 6.44379 16.309 6.44379 16.6475C6.45618 23.72 6.45618 30.7926 6.45618 37.8651C6.45618 38.0223 6.45618 38.1915 6.45618 38.3729C17.8231 38.3608 29.1528 38.3608 40.5569 38.3608ZM2.06048 17.385C2.23384 17.2762 2.3948 17.1674 2.55577 17.0585C9.29171 12.4523 16.0153 7.8582 22.7512 3.26407C23.4694 2.78048 23.5437 2.78048 24.2618 3.26407C31.0225 7.88238 37.7956 12.5128 44.5563 17.1311C44.6801 17.2157 44.8163 17.3003 44.9402 17.3729C45.2002 16.5749 44.8287 16.1639 44.222 15.7528C37.4241 11.1345 30.6511 6.50414 23.878 1.86165C23.5808 1.65612 23.4075 1.6803 23.1227 1.87374C16.3496 6.50414 9.56412 11.1466 2.77865 15.7649C2.15954 16.176 1.78807 16.587 2.06048 17.385ZM44.9773 39.8599C30.6263 39.8599 16.3248 39.8599 2.01096 39.8599C2.01096 40.1017 2.01096 40.3072 2.01096 40.5249C16.3372 40.5249 30.6511 40.5249 44.9773 40.5249C44.9773 40.2952 44.9773 40.0896 44.9773 39.8599Z" fill="#54B689"/>
<path id="Vector_2" d="M34.6503 18.8359C35.0465 18.8359 35.4304 18.8359 35.8142 18.8359C36.6067 18.8359 36.842 19.0656 36.842 19.8272C36.842 24.1191 36.842 28.4231 36.842 32.715C36.842 33.5733 36.842 34.4317 36.842 35.2901C36.842 35.9429 36.5819 36.2089 35.9257 36.2089C27.6296 36.2089 19.3459 36.2089 11.0498 36.2089C10.4183 36.2089 10.1459 35.955 10.1459 35.3264C10.1459 30.1277 10.1459 24.9291 10.1459 19.7184C10.1459 19.0776 10.4059 18.8359 11.0869 18.8238C11.4832 18.8238 11.8918 18.8238 12.3251 18.8238C12.4242 18.2797 12.8576 18.1346 13.3405 18.0017C16.5846 17.1795 19.8412 17.1554 23.0977 17.9533C23.3577 18.0137 23.6549 18.0137 23.9025 17.9533C27.2086 17.1433 30.5023 17.1795 33.7959 18.0379C34.2293 18.1588 34.5636 18.3402 34.6503 18.8359ZM33.1149 32.3644C33.1149 27.9999 33.1149 23.696 33.1149 19.4041C30.7994 18.6545 26.3295 18.6666 24.274 19.4283C24.274 23.7322 24.274 28.0362 24.274 32.3764C27.221 31.6994 30.1432 31.6994 33.1149 32.3644ZM13.8977 19.3799C13.8977 23.7201 13.8977 28.0241 13.8977 32.3644C16.857 31.6873 19.7916 31.7115 22.751 32.3644C22.751 28.012 22.751 23.7201 22.751 19.392C19.7793 18.6545 16.8323 18.6424 13.8977 19.3799ZM11.6689 20.2987C11.6689 25.1346 11.6689 29.9343 11.6689 34.7219C19.5811 34.7219 27.4686 34.7219 35.3437 34.7219C35.3437 29.898 35.3437 25.1105 35.3437 20.2987C35.0961 20.2987 34.8732 20.2987 34.6256 20.2987C34.6256 20.5042 34.6256 20.6856 34.6256 20.8548C34.6256 24.8928 34.6256 28.9308 34.6256 32.9809C34.6256 33.8877 34.2789 34.1536 33.3873 33.9239C30.267 33.0897 27.1343 33.1018 24.014 33.9118C23.692 33.9965 23.3082 33.9965 22.9863 33.9118C19.8659 33.1139 16.758 33.1018 13.65 33.9239C12.7338 34.1657 12.3871 33.9118 12.3871 32.9688C12.3871 28.9308 12.3871 24.8928 12.3871 20.8428C12.3871 20.6614 12.3871 20.4922 12.3871 20.2866C12.127 20.2987 11.9165 20.2987 11.6689 20.2987Z" fill="#54B689"/>
</g>
</g>
<defs>
<clipPath id="clip0_88_7797">
<rect width="46" height="42" fill="white" transform="translate(0.5)"/>
</clipPath>
</defs>
</svg>
