<svg width="48" height="42" viewBox="0 0 48 42" fill="none" xmlns="http://www.w3.org/2000/svg">
<g id="Frame" clip-path="url(#clip0_88_7822)">
<g id="Group">
<path id="Vector" d="M30.7797 34.772C30.7797 36.4617 30.7797 38.0709 30.7797 39.7605C30.9808 39.7605 31.1552 39.7605 31.3429 39.7605C32.8851 39.7605 34.4138 39.7471 35.9559 39.7739C36.6264 39.7874 37.069 40.2567 37.069 40.8736C37.069 41.5038 36.6264 41.9598 35.9693 42C35.8084 42.0134 35.6341 42 35.4732 42C30.6724 42 25.8716 42 21.0709 42C18.2548 42 15.4521 42 12.636 42C11.9521 42 11.4962 41.6916 11.3755 41.1552C11.2011 40.4176 11.7107 39.7605 12.5287 39.7605C14.0306 39.7471 15.5326 39.7605 17.0479 39.7605C17.2356 39.7605 17.41 39.7605 17.6379 39.7605C17.6379 38.0977 17.6379 36.4751 17.6379 34.772C17.4368 34.772 17.2356 34.772 17.0345 34.772C13.5881 34.772 10.1418 34.7854 6.6954 34.772C3.58429 34.7586 1.13027 32.6801 0.58046 29.6092C0.51341 29.2337 0.5 28.8448 0.5 28.4559C0.5 21.0805 0.5 13.705 0.5 6.3295C0.5 2.65517 3.14176 0 6.8295 0C18.4157 0 30.0019 0 41.6015 0C45.2759 0 47.9176 2.65517 47.9176 6.3295C47.9176 13.6916 47.9176 21.0536 47.9176 28.4023C47.9176 32.1169 45.2759 34.7452 41.5613 34.7586C38.182 34.7586 34.8027 34.7586 31.4234 34.7586C31.2222 34.772 31.0345 34.772 30.7797 34.772ZM45.6782 27.0747C45.6782 26.8602 45.6782 26.6992 45.6782 26.5249C45.6782 19.8333 45.6782 13.1418 45.6782 6.45019C45.6782 3.87548 44.0421 2.23946 41.4808 2.23946C29.9751 2.23946 18.4559 2.23946 6.95019 2.23946C4.38889 2.23946 2.73946 3.87548 2.73946 6.43678C2.73946 13.1284 2.73946 19.8199 2.73946 26.5115C2.73946 26.6858 2.73946 26.8736 2.73946 27.0747C17.0747 27.0747 31.3295 27.0747 45.6782 27.0747ZM45.5441 29.3678C31.3027 29.3678 17.0881 29.3678 2.83333 29.3678C2.88697 29.569 2.9272 29.7433 2.98084 29.9176C3.53065 31.5134 4.99234 32.5192 6.76245 32.5326C18.4023 32.5326 30.0421 32.5326 41.6686 32.5326C41.7356 32.5326 41.8027 32.5326 41.8697 32.5326C43.7337 32.4387 45.2759 31.1245 45.5441 29.3678ZM28.4732 34.7989C25.59 34.7989 22.7739 34.7989 19.9444 34.7989C19.9444 36.4617 19.9444 38.0843 19.9444 39.7069C22.8142 39.7069 25.6437 39.7069 28.4732 39.7069C28.4732 38.0575 28.4732 36.4483 28.4732 34.7989Z" fill="#54B689"/>
<path id="Vector_2" d="M24.2491 4.51916C29.9483 4.55939 34.4004 9.10537 34.3602 14.8314C34.3199 20.3966 29.7069 24.8621 24.0747 24.8218C18.523 24.7816 14.0038 20.1686 14.0575 14.6035C14.1111 8.97127 18.6437 4.49234 24.2491 4.51916ZM32.1207 14.6705C32.1341 10.3257 28.5805 6.77204 24.1954 6.75863C19.8908 6.74522 16.2969 10.3391 16.2969 14.6437C16.2969 18.9885 19.8238 22.5556 24.1418 22.5824C28.5268 22.6092 32.1073 19.0556 32.1207 14.6705Z" fill="#54B689"/>
<path id="Vector_3" d="M22.7606 16.025C24.1954 14.5901 25.6035 13.1552 27.0517 11.7472C27.2931 11.5058 27.6552 11.3315 27.9904 11.251C28.433 11.1571 28.795 11.4119 29.0096 11.8276C29.2242 12.2299 29.1973 12.6322 28.9291 13.0077C28.8353 13.1418 28.7146 13.2625 28.5939 13.3832C26.9713 15.0192 25.3353 16.6418 23.6992 18.2778C22.9617 19.002 22.4253 19.002 21.6878 18.2644C21.0173 17.5939 20.3333 16.9234 19.6763 16.2395C19.1533 15.7031 19.1265 15.0058 19.5958 14.5499C20.0517 14.1073 20.7222 14.1341 21.2586 14.6303C21.728 15.0728 22.1839 15.5422 22.6533 15.9981C22.6667 16.0115 22.6801 16.0115 22.7606 16.025Z" fill="#54B689"/>
</g>
</g>
<defs>
<clipPath id="clip0_88_7822">
<rect width="47.4176" height="42" fill="white" transform="translate(0.5)"/>
</clipPath>
</defs>
</svg>
