<svg width="40" height="42" viewBox="0 0 40 42" fill="none" xmlns="http://www.w3.org/2000/svg">
<g id="Frame" clip-path="url(#clip0_88_7807)">
<g id="Group">
<path id="Vector" d="M3.00071 11.6009C3.0739 10.4665 3.56185 9.52716 4.17178 8.63665C4.74512 7.79495 5.35505 6.97764 5.90399 6.12373C6.29435 5.5138 6.58712 4.84287 6.67251 4.02556C6.31875 4.02556 5.98938 4.03776 5.66002 4.02556C5.25746 4.01336 5.06228 3.78159 5.06228 3.37903C5.06228 2.47633 5.05009 1.58583 5.06228 0.683125C5.06228 0.207377 5.28186 0 5.78201 0C9.72217 0 13.6623 0 17.6025 0C18.1271 0 18.3344 0.207377 18.3344 0.719721C18.3466 1.58583 18.3466 2.45193 18.3344 3.31804C18.3222 3.84258 18.1393 4.02556 17.6147 4.03776C17.3097 4.04996 17.017 4.03776 16.59 4.03776C16.712 4.73308 16.7852 5.36741 16.956 5.96515C17.1878 6.77026 17.4927 7.55097 17.7733 8.33169C18.1515 9.38077 18.4808 10.4299 18.432 11.5887C18.5174 11.6131 18.5784 11.6497 18.6516 11.6497C19.9325 11.6497 21.2133 11.6619 22.482 11.6375C22.5918 11.6375 22.7869 11.5033 22.8113 11.3936C23.2017 9.79553 24.4216 9.18559 26.0074 9.83212C26.7393 8.66105 27.764 8.31949 29.0449 8.88063C29.972 7.17281 32.5093 7.39239 33.107 9.30758C34.8148 8.69765 36.3031 9.77113 36.2299 11.6619C36.6812 11.6619 37.1326 11.6619 37.5839 11.6619C38.9624 11.6741 39.8407 12.528 39.8529 13.9065C39.8651 18.6396 39.8529 23.3726 39.8529 28.1057C39.8529 29.106 39.3893 29.8135 38.4744 30.2161C38.3646 30.2649 38.2061 30.3991 38.2061 30.5089C38.1085 31.6433 37.5595 32.5826 36.9374 33.4975C36.4007 34.2904 35.8273 35.059 35.315 35.8641C34.9246 36.474 34.6319 37.1449 34.5465 37.9622C34.9002 37.9622 35.2296 37.95 35.5589 37.9622C35.9615 37.9866 36.1567 38.2062 36.1567 38.6088C36.1567 39.5115 36.1567 40.402 36.1567 41.3047C36.1567 41.7804 35.9249 41.9878 35.437 41.9878C31.4968 41.9878 27.5566 41.9878 23.6165 41.9878C23.1041 41.9878 22.8967 41.7926 22.8967 41.2681C22.8845 40.3898 22.8845 39.4993 22.8967 38.621C22.8967 38.1452 23.0919 37.9622 23.5555 37.95C23.8726 37.9378 24.1898 37.95 24.6411 37.95C24.507 37.2303 24.4216 36.5716 24.2386 35.9373C23.9702 35.0346 23.5799 34.1685 23.3115 33.2658C23.0431 32.3265 22.8601 31.3628 22.6284 30.3381C21.8964 30.3381 21.0547 30.3381 20.2008 30.3381C19.7129 30.3381 19.2249 30.3259 18.737 30.3503C18.615 30.3625 18.4198 30.4723 18.3832 30.5821C17.8953 32.2289 16.8462 32.7656 15.2116 32.1679C14.2723 33.4121 13.6013 33.6317 12.1253 33.1194C11.6618 33.9489 10.9542 34.3514 9.99054 34.2538C9.02685 34.1563 8.41692 33.6073 8.11195 32.6558C7.33124 32.973 6.57492 32.973 5.89179 32.4606C5.22087 31.9483 4.9525 31.253 5.00129 30.3747C4.83051 30.3625 4.67193 30.3503 4.51334 30.3503C3.83022 30.3381 3.14709 30.3625 2.46397 30.3259C1.42708 30.2649 0.62197 29.4598 0.524381 28.4229C0.499983 28.2155 0.499983 27.9959 0.499983 27.7886C0.499983 23.2873 0.536579 18.7859 0.475586 14.2724C0.487785 12.7232 1.3051 11.6131 3.00071 11.6009ZM38.2549 28.8986C38.3158 28.9108 38.389 28.9352 38.45 28.9474C38.5354 28.6425 38.6818 28.3497 38.6818 28.0447C38.694 23.3604 38.694 18.6762 38.694 13.9797C38.694 13.1746 38.328 12.8086 37.5107 12.8086C29.0205 12.8086 20.5302 12.8086 12.0399 12.7964C11.735 12.7964 11.6252 12.8818 11.5886 13.199C11.4056 14.9556 10.0881 16.4438 8.36812 16.8708C8.20954 16.9073 8.05096 16.9439 7.88018 16.9927C7.88018 17.1757 7.88018 17.3343 7.88018 17.4807C7.88018 18.664 7.90457 19.8594 7.85578 21.0427C7.81918 22.2016 6.89208 23.1775 5.78201 23.2872C4.20838 23.458 2.97631 22.3602 2.97631 20.7865C2.96411 18.2736 2.96411 15.7607 2.97631 13.2599C2.97631 12.8818 2.89092 12.7232 2.48837 12.833C1.91503 12.9916 1.67106 13.3209 1.67106 14.0285C1.67106 18.6396 1.67106 23.2507 1.67106 27.8617C1.67106 28.862 2.00042 29.1914 3.02511 29.1914C11.6984 29.1914 20.3716 29.1914 29.0449 29.1914C29.2034 29.1914 29.3742 29.1914 29.5694 29.1914C29.6426 28.1179 29.9964 27.203 30.6917 26.4223C31.3992 25.6294 32.2897 25.1902 33.3022 25.0073C33.3144 24.9341 33.3266 24.9097 33.3266 24.8853C33.3266 23.6654 33.3266 22.4455 33.3388 21.2379C33.351 19.774 34.3879 18.6762 35.7419 18.6884C37.1936 18.7006 38.2549 19.774 38.2549 21.2501C38.2549 23.4702 38.2549 25.6904 38.2549 27.9105C38.2549 28.2277 38.2549 28.5693 38.2549 28.8986ZM33.351 37.9256C33.473 36.2788 34.4367 35.059 35.3394 33.7903C35.6443 33.3633 35.9493 32.9242 36.2299 32.4728C36.6934 31.7287 37.0594 30.9358 37.0716 30.0453C37.096 27.0932 37.0838 24.1412 37.0838 21.1891C37.0838 20.7011 36.852 20.3108 36.4251 20.0668C35.5589 19.5789 34.5343 20.1766 34.5221 21.2013C34.4977 22.5797 34.5221 23.9704 34.5099 25.3488C34.5099 25.8734 34.3391 26.1051 33.8755 26.1173C31.9969 26.1905 30.6673 27.7398 30.7527 29.472C30.7893 30.1795 30.5819 30.3381 29.85 30.3381C28.0568 30.3381 26.2636 30.3503 24.4704 30.3259C24.0068 30.3137 23.897 30.4967 23.9824 30.887C24.141 31.6555 24.2752 32.4362 24.5192 33.1926C25.0315 34.7418 25.7878 36.23 25.7634 37.9256C28.3007 37.9256 30.8015 37.9256 33.351 37.9256ZM7.84358 4.04996C7.6972 5.73337 6.7701 7.02643 5.8308 8.30729C5.41605 8.86843 5.00129 9.44177 4.70852 10.0761C4.44015 10.686 4.18398 11.3692 4.17178 12.0279C4.12299 14.8458 4.15958 17.6515 4.15958 20.4694C4.15958 20.6645 4.15958 20.8719 4.18398 21.0671C4.25717 21.5794 4.54994 21.9332 5.03789 22.0918C5.91619 22.3967 6.7335 21.7624 6.7335 20.7621C6.7457 19.4081 6.7335 18.054 6.7335 16.7C6.7335 16.0534 6.84329 15.9315 7.47762 15.8705C9.28302 15.6631 10.5151 14.2846 10.4785 12.5158C10.4663 11.7839 10.6005 11.6375 11.3568 11.6375C13.1378 11.6375 14.9188 11.6375 16.6998 11.6375C16.8706 11.6375 17.0536 11.6375 17.2366 11.6375C17.3219 10.5274 16.9926 9.58815 16.6754 8.63665C16.2973 7.48998 15.9191 6.33111 15.5653 5.17223C15.4677 4.81847 15.4921 4.42812 15.4555 4.04996C12.9304 4.04996 10.4175 4.04996 7.84358 4.04996ZM17.1512 1.19547C13.5038 1.19547 9.88076 1.19547 6.25775 1.19547C6.25775 1.76881 6.25775 2.30555 6.25775 2.85449C9.90515 2.85449 13.516 2.85449 17.1512 2.85449C17.1512 2.30555 17.1512 1.78101 17.1512 1.19547ZM24.0556 40.7923C27.7396 40.7923 31.3504 40.7923 34.949 40.7923C34.949 40.219 34.949 39.6823 34.949 39.1089C34.7294 39.1089 34.5587 39.1089 34.3757 39.1089C31.3626 39.1089 28.3617 39.1089 25.3487 39.1089C25.0193 39.1089 24.6777 39.0845 24.3484 39.1211C24.2386 39.1333 24.0678 39.2675 24.0678 39.3529C24.0434 39.8286 24.0556 40.2922 24.0556 40.7923ZM31.9603 11.6253C31.9603 10.9666 31.9847 10.3323 31.9481 9.69794C31.9237 9.23439 31.509 8.89283 31.0698 8.86843C30.5941 8.84403 30.1549 9.1612 30.1183 9.66134C30.0695 10.3079 30.1061 10.9544 30.1061 11.6375C30.7283 11.6253 31.326 11.6253 31.9603 11.6253ZM11.1372 30.3747C10.4785 30.3747 9.88076 30.3747 9.24643 30.3747C9.24643 31.009 9.22203 31.6189 9.25863 32.2167C9.28302 32.729 9.68558 33.1072 10.1735 33.1194C10.6737 33.1316 11.1128 32.7534 11.1372 32.2167C11.1616 31.6311 11.1372 31.0212 11.1372 30.3747ZM12.3083 30.3747C12.3571 30.9846 12.1253 31.6311 12.723 32.0703C13.0524 32.3143 13.455 32.3265 13.7843 32.0703C14.3455 31.6189 14.1625 30.9846 14.1625 30.3747C13.5404 30.3747 12.9548 30.3747 12.3083 30.3747ZM28.9107 11.6375C28.8741 11.0154 29.0815 10.3811 28.4593 9.97851C28.13 9.77113 27.7518 9.77113 27.4346 10.0029C26.8491 10.4299 27.0687 11.052 27.0443 11.6375C27.6786 11.6375 28.2641 11.6375 28.9107 11.6375ZM33.1924 11.6497C33.7291 11.6497 34.2659 11.6619 34.8148 11.6375C34.888 11.6375 34.9978 11.5277 35.0222 11.4545C35.1564 10.9056 34.7172 10.3201 34.1439 10.2957C33.4364 10.2713 33.046 10.7958 33.1924 11.6497ZM6.20896 30.3259C6.20896 30.5211 6.19676 30.643 6.20896 30.7528C6.25775 31.3872 6.66031 31.7287 7.25804 31.6799C7.75819 31.6433 8.12415 31.1798 8.07535 30.6186C8.06316 30.5211 7.92897 30.3381 7.84358 30.3381C7.31904 30.3137 6.7823 30.3259 6.20896 30.3259ZM24.019 11.6131C24.6411 11.6131 25.2389 11.6131 25.8366 11.6131C25.739 11.0398 25.4097 10.7104 24.9461 10.7104C24.446 10.7104 24.0922 11.0398 24.019 11.6131ZM15.3824 30.3625C15.5043 30.9968 15.8703 31.314 16.3704 31.2652C16.8706 31.2286 17.1756 30.8748 17.1756 30.3625C16.59 30.3625 16.0045 30.3625 15.3824 30.3625Z" fill="#54B689"/>
<path id="Vector_2" d="M20.1643 27.8496C16.4315 27.8496 13.3574 24.7999 13.3574 21.1281C13.3574 17.2246 16.3827 14.1383 20.2009 14.1383C24.0069 14.1505 27.0321 17.2612 27.0077 21.1647C26.9955 24.8487 23.9215 27.8618 20.1643 27.8496ZM20.1765 26.6907C23.2749 26.7029 25.8245 24.2022 25.8367 21.1403C25.8489 17.8955 23.3725 15.3216 20.2131 15.3094C17.0536 15.2972 14.5285 17.8467 14.5285 21.0793C14.5285 24.1656 17.0536 26.6785 20.1765 26.6907Z" fill="#54B689"/>
<path id="Vector_3" d="M33.168 13.9797C33.8877 13.9797 34.5952 13.9675 35.315 13.9797C36.3641 13.9919 37.0838 14.6872 37.1448 15.7363C37.1692 16.1876 37.157 16.6512 37.1448 17.1025C37.1326 17.5173 36.8886 17.7734 36.5592 17.7734C36.2177 17.7734 35.9981 17.5173 35.9859 17.0903C35.9737 16.7244 35.9859 16.3584 35.9859 15.9924C35.9859 15.3337 35.8029 15.1507 35.1564 15.1507C33.7413 15.1507 32.3263 15.1629 30.9234 15.1385C30.6917 15.1385 30.3867 14.9678 30.2647 14.7848C30.0207 14.4188 30.3501 13.9919 30.8625 13.9797C31.6188 13.9675 32.3873 13.9797 33.168 13.9797Z" fill="#54B689"/>
<path id="Vector_4" d="M7.2337 28.0204C6.51398 28.0204 5.80646 28.0326 5.08673 28.0204C4.00105 28.0082 3.28133 27.3128 3.23254 26.2394C3.22034 25.788 3.22034 25.3245 3.23254 24.8731C3.24474 24.5071 3.42772 24.2632 3.80588 24.2388C4.14744 24.2144 4.37921 24.495 4.39141 24.9097C4.40361 25.2635 4.39141 25.605 4.39141 25.9588C4.39141 26.6785 4.56219 26.8493 5.26971 26.8493C6.67256 26.8493 8.06321 26.8493 9.46606 26.8493C9.80762 26.8493 10.0638 26.9469 10.1614 27.3006C10.259 27.691 9.9906 28.0082 9.50265 28.0204C8.75853 28.0326 8.00222 28.0204 7.2337 28.0204Z" fill="#54B689"/>
<path id="Vector_5" d="M20.8108 17.8588C21.3232 17.9686 21.7623 18.2248 21.9453 18.7737C22.1161 19.2372 22.0063 19.6032 21.6647 19.7496C21.3232 19.896 21.1036 19.7496 20.8596 19.2616C20.8108 19.1641 20.6644 19.0665 20.5668 19.0665C19.3104 19.0665 19.5543 18.8835 19.5178 20.0302C19.5056 20.3229 19.6153 20.4449 19.9081 20.4327C20.2131 20.4205 20.518 20.4205 20.823 20.4449C21.4817 20.4937 21.9819 21.0061 22.0185 21.6648C22.0307 21.9332 22.0307 22.2137 22.0307 22.4821C22.0307 23.4946 21.7623 23.8483 20.823 24.1411C20.64 24.5681 21.0426 25.3122 20.1887 25.3854C19.7495 25.422 19.6519 25.2024 19.5787 24.1533C18.9322 24.0069 18.4443 23.6654 18.3589 22.9456C18.3101 22.4943 18.4809 22.1893 18.8468 22.1527C19.2616 22.1039 19.4568 22.3479 19.5178 22.7261C19.5299 22.7871 19.5543 22.8481 19.5787 22.9578C19.9203 22.9578 20.2619 22.97 20.6034 22.9456C20.6888 22.9334 20.7742 22.7871 20.8596 22.7017C20.8718 22.6895 20.8596 22.6773 20.8596 22.6529C20.9694 21.6038 20.9572 21.5794 19.9081 21.5794C18.8346 21.5794 18.3467 21.0914 18.3467 20.018C18.3467 19.8472 18.3467 19.6886 18.3467 19.5178C18.3467 18.5175 18.615 18.1638 19.5543 17.8588C19.7251 17.4196 19.3348 16.6267 20.1887 16.6389C20.9938 16.6511 20.6766 17.3953 20.8108 17.8588Z" fill="#54B689"/>
<path id="Vector_6" d="M16.9804 21.0427C16.9682 21.4819 16.7364 21.7503 16.3705 21.7381C15.9923 21.7259 15.7971 21.4575 15.7971 20.9695C15.8093 20.5182 16.0289 20.262 16.3949 20.2742C16.7608 20.2742 16.9926 20.5792 16.9804 21.0427Z" fill="#54B689"/>
<path id="Vector_7" d="M24.5801 21.0305C24.5801 21.494 24.3728 21.738 24.0068 21.738C23.6286 21.738 23.4091 21.4574 23.4091 20.9817C23.4091 20.5303 23.6408 20.262 23.9946 20.262C24.3728 20.262 24.5801 20.5303 24.5801 21.0305Z" fill="#54B689"/>
</g>
</g>
<defs>
<clipPath id="clip0_88_7807">
<rect width="39.3651" height="42" fill="white" transform="translate(0.5)"/>
</clipPath>
</defs>
</svg>
