<svg width="243" height="240" viewBox="0 0 243 240" fill="none" xmlns="http://www.w3.org/2000/svg">
<g id="Group">
<g id="Group_2">
<path id="Vector" d="M120.818 45.1908C120.818 44.1567 119.833 44.2037 118.614 44.2037C117.395 44.2037 116.41 44.1567 116.41 45.1908C116.41 46.225 117.395 47.9642 118.614 47.9642C119.833 47.9642 120.818 46.225 120.818 45.1908Z" fill="#AD8E66"/>
<g id="Group_3">
<path id="Vector_2" d="M125.413 36.8237C125.413 35.7896 124.85 34.9435 118.708 34.9435C112.565 34.9435 112.003 35.7896 112.003 36.8237C112.003 37.8579 112.565 38.704 118.708 38.704C124.85 38.704 125.413 37.8579 125.413 36.8237Z" fill="#D3C39B"/>
<path id="Vector_3" d="M124.663 39.7381C124.663 38.845 124.147 38.1399 118.708 38.1399C113.269 38.1399 112.753 38.845 112.753 39.7381C112.753 40.6312 113.269 41.3363 118.708 41.3363C124.147 41.2893 124.663 40.5842 124.663 39.7381Z" fill="#D3C39B"/>
<path id="Vector_4" d="M123.772 42.3236C123.772 41.4304 123.35 40.7253 118.708 40.7253C114.113 40.7253 113.644 41.4304 113.644 42.3236C113.644 43.2167 114.066 43.9218 118.708 43.9218C123.303 43.9218 123.772 43.2167 123.772 42.3236Z" fill="#D3C39B"/>
<path id="Vector_5" d="M122.881 44.6738C122.881 43.7807 122.506 43.0756 118.708 43.0756C114.91 43.0756 114.535 43.7807 114.535 44.6738C114.535 45.5669 114.91 46.272 118.708 46.272C122.506 46.272 122.881 45.5669 122.881 44.6738Z" fill="#D3C39B"/>
<g id="Group_4">
<path id="Vector_6" d="M123.49 36.8237C123.49 35.7896 123.068 34.9435 118.708 34.9435C114.347 34.9435 113.925 35.7896 113.925 36.8237C113.925 37.8579 114.347 38.704 118.708 38.704C123.068 38.704 123.49 37.8579 123.49 36.8237Z" fill="#EFDFBB"/>
<path id="Vector_7" d="M122.928 39.7381C122.928 38.845 122.553 38.1399 118.708 38.1399C114.863 38.1399 114.488 38.845 114.488 39.7381C114.488 40.6312 114.863 41.3363 118.708 41.3363C122.553 41.2893 122.928 40.5842 122.928 39.7381Z" fill="#EFDFBB"/>
<path id="Vector_8" d="M122.271 42.3236C122.271 41.4304 121.943 40.7253 118.708 40.7253C115.426 40.7253 115.144 41.4304 115.144 42.3236C115.144 43.2167 115.472 43.9218 118.708 43.9218C121.99 43.9218 122.271 43.2167 122.271 42.3236Z" fill="#EFDFBB"/>
<path id="Vector_9" d="M121.662 44.6738C121.662 43.7807 121.427 43.0756 118.708 43.0756C115.988 43.0756 115.754 43.7807 115.754 44.6738C115.754 45.5669 115.988 46.272 118.708 46.272C121.427 46.272 121.662 45.5669 121.662 44.6738Z" fill="#EFDFBB"/>
</g>
<path id="Vector_10" d="M125.413 36.6828C125.319 35.7427 124.475 34.9906 118.708 34.9906C113.034 34.9906 112.096 35.6957 112.003 36.6358C116.035 38.8451 121.99 38.4221 125.413 36.6828Z" fill="#AD8E66"/>
</g>
<path id="Vector_11" d="M136.526 18.6792C136.526 8.33774 128.461 -0.0294189 118.473 -0.0294189C108.533 -0.0294189 100.468 8.33774 100.468 18.6792C100.468 29.0206 108.533 37.3878 118.473 37.3878C128.461 37.3878 136.526 29.0206 136.526 18.6792Z" fill="#FFDB45"/>
<path id="Vector_12" d="M135.775 18.6791C135.775 8.76076 128.039 0.769653 118.52 0.769653C109.002 0.769653 101.265 8.80777 101.265 18.6791C101.265 28.5975 109.002 36.5886 118.52 36.5886C128.039 36.6356 135.775 28.5975 135.775 18.6791Z" fill="#FFEE71"/>
<path id="Vector_13" d="M133.994 18.6791C133.994 9.79491 127.054 2.55591 118.473 2.55591C109.892 2.55591 102.953 9.74791 102.953 18.6791C102.953 27.5634 109.892 34.8024 118.473 34.8024C127.054 34.8024 133.994 27.5634 133.994 18.6791Z" fill="#822E1D"/>
<path id="Vector_14" d="M133.384 18.6791C133.384 10.1709 126.726 3.26099 118.52 3.26099C110.315 3.26099 103.656 10.1709 103.656 18.6791C103.656 27.1873 110.315 34.0973 118.52 34.0973C126.726 34.1443 133.384 27.2343 133.384 18.6791Z" fill="#AF452C"/>
<path id="Vector_15" d="M130.899 19.9014C130.899 12.5213 124.991 6.55151 117.676 6.55151C110.361 6.55151 104.453 12.5213 104.453 19.9014C104.453 27.2814 110.361 33.2512 117.676 33.2512C124.944 33.2982 130.899 27.2814 130.899 19.9014Z" fill="#CE6241"/>
<path id="Vector_16" d="M118.286 18.8202L113.222 10.218L111.112 9.65393L111.44 11.4872L117.957 19.0082L118.286 18.8202Z" fill="#AF452C"/>
<path id="Vector_17" d="M118.473 19.3842L126.257 25.6831L128.461 25.4481L127.476 23.8968L118.708 19.1022L118.473 19.3842Z" fill="#AF452C"/>
<path id="Vector_18" d="M116.457 19.5723C116.457 20.3714 117.16 20.9825 118.004 20.9825C118.848 20.9825 119.552 20.3244 119.552 19.5723C119.552 18.7732 118.848 18.1621 118.004 18.1621C117.113 18.1621 116.457 18.7732 116.457 19.5723Z" fill="#AF452C"/>
<path id="Vector_19" d="M117.113 18.6792C117.113 19.3843 117.723 19.9484 118.473 19.9484C119.223 19.9484 119.833 19.3843 119.833 18.6792C119.833 17.9741 119.223 17.41 118.473 17.41C117.723 17.41 117.113 17.9741 117.113 18.6792Z" fill="#FFEBB3"/>
<path id="Vector_20" d="M118.473 18.5381L115.191 9.04279L113.175 8.10266V9.93591L118.098 18.6321L118.473 18.5381Z" fill="#FFEBB3"/>
<path id="Vector_21" d="M118.614 18.8201L127.476 23.4268L129.586 22.7687L128.32 21.4055L118.801 18.4911L118.614 18.8201Z" fill="#FFEBB3"/>
<g id="Group_5">
<path id="Vector_22" d="M109.189 26.3882L108.908 26.0592L108.205 26.7173L108.486 27.0463L109.189 26.3882Z" fill="#FFEBB3"/>
<path id="Vector_23" d="M128.133 8.71381L127.851 8.38477L127.148 8.99585L127.429 9.3249L128.133 8.71381Z" fill="#FFEBB3"/>
<path id="Vector_24" d="M109.986 8.61971L110.361 8.29067L109.705 7.58557L109.33 7.91462L109.986 8.61971Z" fill="#FFEBB3"/>
<path id="Vector_25" d="M126.585 28.8326L126.913 28.5036L126.398 27.7985L126.022 28.1275L126.585 28.8326Z" fill="#FFEBB3"/>
<path id="Vector_26" d="M107.361 17.3159L107.407 16.8459L105.204 16.7048L105.157 17.1749L107.361 17.3159Z" fill="#FFEBB3"/>
<path id="Vector_27" d="M131.931 19.0082L131.977 18.5381L129.68 18.3971L129.633 18.8202L131.931 19.0082Z" fill="#FFEBB3"/>
<path id="Vector_28" d="M118.989 6.17543L119.505 6.22244L119.692 3.73109L119.223 3.68408L118.989 6.17543Z" fill="#FFEBB3"/>
<path id="Vector_29" d="M116.785 32.0291H117.254L117.489 29.5377L117.02 29.4907L116.785 32.0291Z" fill="#FFEBB3"/>
</g>
<path id="Vector_30" d="M122.834 41.0073C122.834 40.7723 120.958 40.9133 118.708 40.9133C116.41 40.9133 114.581 40.7723 114.581 41.0073C114.581 41.2423 116.457 41.1013 118.708 41.1013C120.958 41.1013 122.834 41.2423 122.834 41.0073Z" fill="#D3C39B"/>
<path id="Vector_31" d="M122.834 38.4689C122.834 38.2338 120.958 38.3748 118.708 38.3748C116.41 38.3748 114.581 38.2338 114.581 38.4689C114.581 38.7039 116.457 38.5629 118.708 38.5629C120.958 38.5629 122.834 38.7039 122.834 38.4689Z" fill="#D3C39B"/>
<path id="Vector_32" d="M122.224 43.6396C122.224 43.4046 120.63 43.5456 118.661 43.5456C116.691 43.5456 115.097 43.4046 115.097 43.6396C115.097 43.8747 116.691 43.7336 118.661 43.7336C120.63 43.7336 122.224 43.8747 122.224 43.6396Z" fill="#D3C39B"/>
<path id="Vector_33" d="M119.411 47.3061C119.411 47.0241 119.036 46.8361 118.614 46.8361C118.192 46.8361 117.817 47.0711 117.817 47.3061C117.817 47.5882 118.192 47.7762 118.614 47.7762C119.036 47.8232 119.411 47.5882 119.411 47.3061Z" fill="#D3C39B"/>
<path id="Vector_34" d="M120.489 39.221C120.489 38.986 119.645 38.845 118.614 38.845C117.582 38.845 116.738 39.033 116.738 39.221C116.738 39.4561 117.582 39.5971 118.614 39.5971C119.645 39.5971 120.489 39.4091 120.489 39.221Z" fill="#FFF2DC"/>
<path id="Vector_35" d="M120.489 41.7594C120.489 41.5243 119.645 41.3833 118.614 41.3833C117.582 41.3833 116.738 41.5713 116.738 41.7594C116.738 41.9944 117.582 42.1354 118.614 42.1354C119.645 42.1824 120.489 41.9944 120.489 41.7594Z" fill="#FFF2DC"/>
<path id="Vector_36" d="M120.489 44.5328C120.489 44.2978 119.645 44.1567 118.614 44.1567C117.582 44.1567 116.738 44.3448 116.738 44.5328C116.738 44.7678 117.582 44.9088 118.614 44.9088C119.645 44.9558 120.489 44.7678 120.489 44.5328Z" fill="#FFF2DC"/>
<path id="Vector_37" d="M117.77 18.6792C117.77 19.0553 118.098 19.3843 118.52 19.3843C118.942 19.3843 119.27 19.0553 119.27 18.6792C119.27 18.3032 118.942 17.9741 118.52 17.9741C118.098 18.0211 117.77 18.3032 117.77 18.6792Z" fill="#AF452C"/>
<path id="Vector_38" opacity="0.7" d="M117.864 30.8069C110.08 29.7257 104.688 22.3457 105.672 14.3076C105.391 15.1537 105.157 16.0469 105.063 16.94C104.031 24.367 109.002 31.183 116.129 32.1701C119.552 32.6402 122.881 31.653 125.507 29.7258C123.162 30.7599 120.536 31.183 117.864 30.8069Z" fill="#FFF8D9"/>
<g id="Group_6" opacity="0.7">
<path id="Vector_39" d="M122.177 4.76527C121.755 4.67126 121.333 4.57725 120.911 4.53024C117.348 4.06017 113.925 5.04731 111.252 7.06859C113.644 5.98744 116.363 5.56438 119.13 5.94043C120.114 6.08145 121.099 6.31649 121.99 6.64553L122.177 4.76527Z" fill="#FFF8D9"/>
<path id="Vector_40" d="M132.024 14.8716L130.43 14.6836C131.509 17.1749 131.977 20.0423 131.649 22.9567C131.931 22.1106 132.165 21.1705 132.306 20.2304C132.54 18.3501 132.446 16.5639 132.024 14.8716Z" fill="#FFF8D9"/>
</g>
</g>
<g id="Group_7">
<path id="Vector_41" d="M91.5119 120.918C89.1674 118.897 85.6976 119.132 83.6814 121.482C81.6651 123.833 81.9465 127.358 84.2909 129.38C86.6354 131.401 90.1052 131.166 92.1214 128.815C94.0908 126.465 93.8563 122.94 91.5119 120.918ZM91.043 127.922C89.5425 129.662 86.9167 129.85 85.1818 128.345C83.4469 126.841 83.2125 124.162 84.7129 122.423C86.2134 120.683 88.8392 120.495 90.5741 122C92.3559 123.504 92.5434 126.136 91.043 127.922Z" fill="#457784"/>
<path id="Vector_42" d="M90.8554 128.11C89.355 129.662 86.8699 129.756 85.1818 128.298C83.4469 126.794 83.2125 124.115 84.713 122.376C84.7598 122.329 84.8067 122.282 84.8536 122.235C84.8536 121.764 84.9005 121.341 84.9943 120.871C85.0412 120.636 85.135 120.401 85.2287 120.166C84.6661 120.495 84.1034 120.918 83.6345 121.435C81.6183 123.786 81.8996 127.311 84.2441 129.333C86.5885 131.354 90.0583 131.119 92.0746 128.768C92.309 128.533 92.4966 128.251 92.6372 127.969C92.0746 128.157 91.465 128.157 90.8554 128.11Z" fill="#5893A0"/>
<path id="Vector_43" d="M93.3875 118.709C89.824 115.607 84.5255 115.983 81.4777 119.555C78.4299 123.128 78.8519 128.486 82.3686 131.589C85.9322 134.691 91.2306 134.315 94.2784 130.743C97.3262 127.17 96.9511 121.811 93.3875 118.709ZM91.6058 128.345C89.8709 130.414 86.7762 130.602 84.7599 128.815C82.7437 127.029 82.5093 123.927 84.2442 121.905C85.9791 119.884 89.0737 119.649 91.09 121.435C93.1062 123.222 93.3407 126.324 91.6058 128.345Z" fill="#7BADBF"/>
<path id="Vector_44" d="M97.42 120.73L96.154 118.568L91.1368 119.32L94.3722 124.773L97.42 120.73Z" fill="#7BADBF"/>
<path id="Vector_45" d="M77.9141 129.332L79.1801 131.495L84.1972 130.743L80.9619 125.337L77.9141 129.332Z" fill="#7BADBF"/>
<path id="Vector_46" d="M91.9808 134.832L94.0908 133.563L93.3875 128.533L87.9484 131.73L91.9808 134.832Z" fill="#7BADBF"/>
<path id="Vector_47" d="M83.3532 115.278L81.2432 116.547L81.9465 121.529L87.3856 118.333L83.3532 115.278Z" fill="#7BADBF"/>
<path id="Vector_48" d="M83.8221 134.973L86.2135 135.631L89.2144 131.542L83.1188 129.991L83.8221 134.973Z" fill="#7BADBF"/>
<path id="Vector_49" d="M91.5119 115.089L89.1206 114.431L86.0728 118.521L92.2152 120.119L91.5119 115.089Z" fill="#7BADBF"/>
<path id="Vector_50" d="M77.7265 121.153L77.1169 123.598L81.1494 126.606L82.7436 120.495L77.7265 121.153Z" fill="#7BADBF"/>
<path id="Vector_51" d="M97.6075 128.909L98.217 126.512L94.1846 123.457L92.5903 129.568L97.6075 128.909Z" fill="#7BADBF"/>
<path id="Vector_52" d="M94.3252 130.743C94.4659 130.555 94.6535 130.367 94.7941 130.179C93.997 130.132 93.1999 129.991 92.4028 129.756C91.8401 129.615 91.2306 129.427 90.7148 129.191C88.933 130.414 86.4947 130.32 84.8067 128.815C82.9781 127.217 82.6029 124.585 83.7752 122.611C82.7905 120.401 82.5092 117.91 83.1187 115.419L81.2901 116.5L81.7121 119.32C81.6652 119.367 81.6183 119.414 81.5714 119.508C81.2432 119.884 80.9618 120.307 80.6805 120.777L77.8202 121.153L77.2107 123.551L79.5552 125.29C79.5552 125.854 79.6489 126.418 79.7896 126.982L78.0078 129.285L79.2738 131.448L81.9934 131.072C82.1341 131.26 82.3216 131.401 82.5092 131.542C82.8374 131.824 83.2125 132.106 83.5876 132.341L83.9627 134.973L86.3541 135.584L87.8076 133.657C88.6516 133.704 89.4488 133.61 90.2459 133.375L92.0746 134.785L94.2315 133.516L93.9032 131.26C93.9501 131.119 94.1377 130.931 94.3252 130.743Z" fill="#659AA8"/>
<path id="Vector_53" d="M92.356 119.931C89.4957 117.44 85.1819 117.722 82.7437 120.589C80.3055 123.457 80.6337 127.828 83.4939 130.32C86.3542 132.811 90.668 132.529 93.1062 129.662C95.4976 126.794 95.1693 122.423 92.356 119.931ZM91.7933 128.533C89.9646 130.696 86.7293 130.931 84.5724 129.05C82.4155 127.17 82.181 123.927 84.0097 121.764C85.8384 119.602 89.0737 119.367 91.2306 121.247C93.3875 123.128 93.622 126.371 91.7933 128.533Z" fill="#B8E9F4"/>
<path id="Vector_54" d="M91.09 129.191C89.2144 130.696 86.4479 130.696 84.5724 129.05C82.4155 127.17 82.181 123.927 84.0097 121.764C84.1504 121.623 84.2441 121.482 84.3848 121.341C84.4317 121.106 84.4786 120.918 84.5255 120.683C84.713 119.931 85.0413 119.273 85.5102 118.662C84.4786 119.038 83.5408 119.696 82.7437 120.589C80.3055 123.457 80.6337 127.828 83.4939 130.32C86.3542 132.811 90.668 132.529 93.1062 129.662C93.2469 129.521 93.3875 129.332 93.4813 129.144C92.6842 129.285 91.934 129.285 91.09 129.191Z" fill="#9FD4E2"/>
<g id="Group_8">
<path id="Vector_55" d="M85.4163 120.636C84.7599 120.918 84.1972 121.388 83.6814 121.953C81.8528 124.115 82.0872 127.358 84.2441 129.239C85.9321 130.696 88.2766 130.884 90.0584 129.85C88.2766 130.649 86.1666 130.414 84.5723 129.051C82.4154 127.17 82.181 123.927 84.0097 121.765C84.4317 121.294 84.9006 120.918 85.4163 120.636Z" fill="#E6FBFF"/>
<path id="Vector_56" d="M92.356 119.931C90.1522 118.004 87.0575 117.769 84.6661 119.038C87.0106 117.91 89.9177 118.239 92.0277 120.072C94.888 122.564 95.2162 126.935 92.778 129.803C92.2153 130.461 91.5588 130.978 90.8555 131.354C91.6995 130.978 92.4497 130.367 93.1062 129.615C95.4975 126.794 95.1693 122.423 92.356 119.931Z" fill="#E6FBFF"/>
</g>
<g id="Group_9">
<path id="Vector_57" d="M91.1369 115.278L91.4651 117.816C91.9809 118.098 92.5436 118.474 93.0125 118.897C93.1062 118.991 93.2 119.038 93.2938 119.132L95.7789 118.756L97.0449 120.918L95.5914 122.846C95.8258 123.645 95.9665 124.444 95.9665 125.29L97.842 126.7L97.2794 128.956L97.6545 128.909L98.264 126.512L96.3885 125.102C96.3885 124.256 96.2478 123.457 96.0134 122.658L97.4669 120.73L96.2009 118.568L93.7158 118.944C93.622 118.85 93.5282 118.756 93.4345 118.709C92.9656 118.286 92.4498 117.91 91.8871 117.628L91.5589 115.089L89.1675 114.478L88.98 114.713L91.1369 115.278Z" fill="#B8E9F4"/>
<path id="Vector_58" d="M85.557 120.824C84.9006 121.106 84.291 121.529 83.8221 122.093C82.0872 124.115 82.3217 127.217 84.3379 129.003C85.9321 130.367 88.1359 130.555 89.8239 129.614C88.1828 130.32 86.1666 130.085 84.713 128.815C82.6968 127.029 82.4623 123.927 84.1972 121.905C84.6192 121.435 85.0412 121.106 85.557 120.824Z" fill="#B8E9F4"/>
<path id="Vector_59" d="M85.135 117.111C85.7915 116.923 86.4479 116.829 87.1044 116.782L87.2451 116.594C86.6824 116.641 86.0728 116.735 85.557 116.876L83.4001 115.23L83.025 115.466L85.135 117.111Z" fill="#B8E9F4"/>
<path id="Vector_60" d="M94.9818 129.379C94.7004 129.943 94.3253 130.461 93.9502 130.931C93.2469 131.777 92.4029 132.435 91.4651 132.905C92.5435 132.435 93.5282 131.683 94.3253 130.743C94.7004 130.32 95.0287 129.849 95.2631 129.332L94.9818 129.379Z" fill="#B8E9F4"/>
</g>
</g>
<g id="Group_10">
<path id="Vector_61" d="M212.298 10.453C209.86 9.04282 206.719 9.88893 205.359 12.3333C203.999 14.7776 204.843 17.927 207.281 19.3372C209.72 20.7474 212.861 19.9013 214.221 17.457C215.628 15.0126 214.737 11.8632 212.298 10.453ZM213.142 16.7989C212.111 18.6321 209.766 19.2902 207.938 18.2091C206.109 17.1279 205.453 14.7776 206.484 12.9444C207.516 11.1111 209.86 10.453 211.689 11.5342C213.518 12.6153 214.174 14.9656 213.142 16.7989Z" fill="#457784"/>
<path id="Vector_62" d="M213.002 17.0809C211.923 18.7262 209.72 19.2432 207.938 18.2561C206.109 17.175 205.453 14.8246 206.484 12.9914C206.531 12.9444 206.531 12.8974 206.578 12.8504C206.484 12.4273 206.437 12.0512 206.484 11.5812C206.484 11.3462 206.531 11.1581 206.578 10.9231C206.109 11.2991 205.687 11.7692 205.406 12.3333C204.046 14.7776 204.89 17.9271 207.328 19.3373C209.766 20.7475 212.908 19.9013 214.268 17.457C214.408 17.175 214.549 16.8929 214.643 16.6109C214.08 16.8459 213.564 16.9869 213.002 17.0809Z" fill="#5893A0"/>
<path id="Vector_63" d="M213.611 8.10272C209.86 5.94042 205.124 7.20959 203.061 10.9701C200.951 14.7306 202.264 19.4783 206.015 21.6406C209.766 23.8029 214.502 22.5337 216.565 18.7732C218.675 15.0597 217.362 10.265 213.611 8.10272ZM213.705 17.128C212.486 19.2903 209.766 19.9954 207.61 18.7732C205.453 17.551 204.702 14.7776 205.922 12.6153C207.141 10.453 209.86 9.74794 212.017 10.9701C214.127 12.2393 214.877 14.9657 213.705 17.128Z" fill="#7BADBF"/>
<path id="Vector_64" d="M217.597 9.23081L216.05 7.53857L211.689 9.08979L215.534 13.4144L217.597 9.23081Z" fill="#7BADBF"/>
<path id="Vector_65" d="M201.561 20.4653L203.061 22.1576L207.469 20.6063L203.624 16.2817L201.561 20.4653Z" fill="#7BADBF"/>
<path id="Vector_66" d="M215.159 22.8628L216.847 21.3585L215.346 16.9869L211.032 20.8415L215.159 22.8628Z" fill="#7BADBF"/>
<path id="Vector_67" d="M203.952 6.8335L202.264 8.33771L203.812 12.7093L208.125 8.85478L203.952 6.8335Z" fill="#7BADBF"/>
<path id="Vector_68" d="M207.891 24.508L210.142 24.602L212.158 20.4184L206.39 20.0894L207.891 24.508Z" fill="#7BADBF"/>
<path id="Vector_69" d="M211.267 5.18826L209.016 5.04724L207 9.27783L212.767 9.60688L211.267 5.18826Z" fill="#7BADBF"/>
<path id="Vector_70" d="M199.967 13.1324L199.826 15.4357L203.999 17.41L204.327 11.6282L199.967 13.1324Z" fill="#7BADBF"/>
<path id="Vector_71" d="M219.191 16.5638L219.332 14.2605L215.159 12.2863L214.83 18.0681L219.191 16.5638Z" fill="#7BADBF"/>
<path id="Vector_72" d="M216.565 18.8201C216.659 18.6321 216.8 18.3971 216.847 18.209C216.096 18.303 215.346 18.303 214.596 18.256C214.033 18.209 213.518 18.162 212.955 18.068C211.595 19.4782 209.391 19.8543 207.563 18.8201C205.64 17.692 204.843 15.4356 205.546 13.4144C204.28 11.5811 203.577 9.41881 203.671 7.06848L202.217 8.33766L203.108 10.829C203.061 10.876 203.014 10.923 203.014 11.017C202.78 11.4401 202.592 11.8631 202.452 12.2862L199.92 13.1323L199.779 15.3886L202.217 16.5638C202.311 17.0809 202.499 17.5509 202.733 18.068L201.561 20.4653L203.061 22.1576L205.453 21.3115C205.64 21.4525 205.828 21.5465 206.015 21.6405C206.39 21.8285 206.719 22.0166 207.094 22.1576L207.891 24.4609L210.142 24.6019L211.079 22.5806C211.83 22.4396 212.533 22.2516 213.236 21.8755L215.159 22.8157L216.847 21.3115L216.143 19.3372C216.331 19.1962 216.425 19.0081 216.565 18.8201Z" fill="#659AA8"/>
<path id="Vector_73" d="M212.861 9.41885C209.86 7.67961 206.015 8.71375 204.327 11.7222C202.639 14.7306 203.718 18.5851 206.719 20.3244C209.72 22.0636 213.565 21.0295 215.253 18.021C216.941 15.0126 215.862 11.1581 212.861 9.41885ZM213.893 17.2689C212.627 19.5253 209.766 20.3244 207.516 19.0082C205.265 17.692 204.468 14.8246 205.734 12.5683C207 10.312 209.86 9.51286 212.111 10.829C214.362 12.0982 215.159 15.0126 213.893 17.2689Z" fill="#B8E9F4"/>
<path id="Vector_74" d="M213.424 17.974C212.017 19.6662 209.532 20.1833 207.516 19.0081C205.265 17.6919 204.468 14.8245 205.734 12.5682C205.828 12.4272 205.922 12.2862 206.015 12.1452C206.015 11.9571 206.015 11.7221 206.015 11.5341C206.062 10.829 206.25 10.1709 206.531 9.55981C205.687 10.0769 204.937 10.829 204.374 11.8161C202.686 14.8245 203.765 18.6791 206.766 20.4183C209.766 22.1576 213.611 21.1234 215.299 18.115C215.393 17.927 215.487 17.786 215.534 17.5979C214.831 17.786 214.127 17.927 213.424 17.974Z" fill="#9FD4E2"/>
<g id="Group_11">
<path id="Vector_75" d="M206.766 11.2521C206.25 11.6281 205.781 12.1452 205.453 12.7563C204.187 15.0126 204.984 17.927 207.234 19.1962C209.016 20.2303 211.126 19.9483 212.58 18.7261C211.126 19.7603 209.157 19.9483 207.516 18.9611C205.265 17.645 204.468 14.7776 205.734 12.5212C205.968 12.0512 206.344 11.6281 206.766 11.2521Z" fill="#E6FBFF"/>
<path id="Vector_76" d="M212.861 9.41887C210.517 8.05568 207.703 8.38473 205.781 9.98295C207.703 8.57276 210.376 8.33772 212.58 9.6069C215.581 11.3461 216.659 15.2007 214.971 18.2091C214.596 18.9142 214.08 19.4783 213.518 19.9483C214.221 19.4313 214.784 18.7732 215.253 18.0211C216.941 15.0126 215.862 11.1581 212.861 9.41887Z" fill="#E6FBFF"/>
</g>
<g id="Group_12">
<path id="Vector_77" d="M210.939 5.47028L211.689 7.72659C212.205 7.91462 212.767 8.10265 213.283 8.43169C213.377 8.4787 213.471 8.5257 213.565 8.61971L215.721 7.86761L217.222 9.55984L216.237 11.5341C216.612 12.1922 216.847 12.9443 217.034 13.6494L218.957 14.5895L218.816 16.7518L219.144 16.6578L219.285 14.4015L217.363 13.4614C217.222 12.7093 216.941 12.0042 216.565 11.3461L217.55 9.37182L216.05 7.67958L213.893 8.43169C213.799 8.38468 213.705 8.33767 213.611 8.24366C213.096 7.96162 212.58 7.72659 212.017 7.53856L211.267 5.28225L209.016 5.14124L208.876 5.37627L210.939 5.47028Z" fill="#B8E9F4"/>
<path id="Vector_78" d="M206.953 11.4401C206.437 11.8161 205.968 12.2862 205.593 12.8973C204.374 15.0596 205.124 17.7859 207.281 19.0551C208.969 19.9952 210.939 19.7602 212.345 18.6321C210.986 19.5722 209.157 19.7132 207.61 18.8201C205.453 17.5979 204.702 14.8245 205.922 12.6622C206.203 12.1922 206.531 11.7691 206.953 11.4401Z" fill="#B8E9F4"/>
<path id="Vector_79" d="M205.922 8.14969C206.484 7.86765 207.047 7.67962 207.656 7.5386L207.75 7.35058C207.234 7.4916 206.719 7.67962 206.25 7.91465L203.999 6.7865L203.718 7.06853L205.922 8.14969Z" fill="#B8E9F4"/>
<path id="Vector_80" d="M216.894 17.4569C216.753 17.974 216.518 18.5381 216.237 19.0551C215.721 19.9483 215.112 20.7004 214.362 21.2645C215.252 20.6534 216.003 19.8072 216.565 18.8201C216.847 18.35 217.034 17.88 217.175 17.4099L216.894 17.4569Z" fill="#B8E9F4"/>
</g>
</g>
<g id="Group_13">
<path id="Vector_81" d="M152.796 123.692C148.717 121.341 143.512 122.752 141.214 126.841C138.917 130.931 140.37 136.195 144.45 138.546C148.529 140.896 153.734 139.486 156.031 135.396C158.329 131.307 156.875 126.042 152.796 123.692ZM154.156 134.315C152.421 137.371 148.529 138.452 145.481 136.666C142.387 134.879 141.308 130.978 143.043 127.875C144.778 124.82 148.67 123.739 151.718 125.525C154.812 127.311 155.891 131.26 154.156 134.315Z" fill="#457784"/>
<path id="Vector_82" d="M153.921 134.738C152.093 137.512 148.435 138.405 145.481 136.713C142.387 134.926 141.308 131.025 143.043 127.922C143.09 127.828 143.137 127.781 143.184 127.687C143.043 127.029 142.996 126.324 142.996 125.619C142.996 125.243 143.09 124.867 143.137 124.538C142.34 125.196 141.683 125.948 141.168 126.888C138.87 130.978 140.324 136.242 144.403 138.593C148.482 140.943 153.687 139.533 155.985 135.443C156.219 134.973 156.453 134.55 156.594 134.08C155.797 134.362 154.859 134.597 153.921 134.738Z" fill="#5893A0"/>
<path id="Vector_83" d="M154.953 119.837C148.717 116.218 140.839 118.38 137.323 124.632C133.806 130.884 136.01 138.828 142.246 142.447C148.482 146.02 156.36 143.905 159.876 137.653C163.393 131.401 161.189 123.41 154.953 119.837ZM155.094 134.879C153.077 138.452 148.529 139.721 144.966 137.653C141.402 135.584 140.136 130.978 142.152 127.405C144.169 123.833 148.717 122.564 152.28 124.632C155.844 126.7 157.11 131.26 155.094 134.879Z" fill="#7BADBF"/>
<path id="Vector_84" d="M161.564 121.67L159.079 118.85L151.765 121.388L158.188 128.627L161.564 121.67Z" fill="#7BADBF"/>
<path id="Vector_85" d="M134.885 140.379L137.37 143.246L144.684 140.661L138.261 133.422L134.885 140.379Z" fill="#7BADBF"/>
<path id="Vector_86" d="M157.579 144.422L160.392 141.883L157.813 134.597L150.639 140.99L157.579 144.422Z" fill="#7BADBF"/>
<path id="Vector_87" d="M138.87 117.628L136.057 120.166L138.636 127.499L145.81 121.059L138.87 117.628Z" fill="#7BADBF"/>
<path id="Vector_88" d="M145.388 147.148L149.186 147.336L152.515 140.379L142.902 139.815L145.388 147.148Z" fill="#7BADBF"/>
<path id="Vector_89" d="M151.061 114.949L147.263 114.714L143.934 121.717L153.546 122.282L151.061 114.949Z" fill="#7BADBF"/>
<path id="Vector_90" d="M132.165 128.204L131.93 131.965L138.917 135.349L139.48 125.666L132.165 128.204Z" fill="#7BADBF"/>
<path id="Vector_91" d="M164.284 133.892L164.472 130.085L157.532 126.747L156.969 136.384L164.284 133.892Z" fill="#7BADBF"/>
<path id="Vector_92" d="M159.876 137.653C160.064 137.324 160.252 136.995 160.392 136.618C159.173 136.76 157.907 136.807 156.641 136.713C155.703 136.666 154.812 136.524 153.921 136.383C151.624 138.734 147.967 139.345 144.919 137.606C141.73 135.772 140.37 131.918 141.543 128.58C139.386 125.525 138.214 121.905 138.401 118.004L135.963 120.166L137.416 124.303C137.37 124.397 137.276 124.491 137.229 124.585C136.854 125.29 136.526 125.995 136.291 126.747L132.071 128.204L131.837 132.012L135.869 133.939C136.057 134.785 136.338 135.631 136.713 136.43L134.744 140.426L137.276 143.293L141.261 141.883C141.543 142.071 141.871 142.259 142.152 142.447C142.762 142.776 143.371 143.058 143.981 143.34L145.294 147.195L149.092 147.43L150.686 144.093C151.952 143.904 153.124 143.528 154.297 142.964L157.485 144.516L160.345 141.977L159.22 138.734C159.454 138.311 159.689 137.982 159.876 137.653Z" fill="#659AA8"/>
<path id="Vector_93" d="M153.734 121.999C148.717 119.085 142.34 120.824 139.527 125.854C136.713 130.884 138.495 137.324 143.512 140.238C148.529 143.152 154.906 141.413 157.72 136.383C160.533 131.354 158.751 124.914 153.734 121.999ZM155.422 135.067C153.312 138.828 148.529 140.144 144.731 137.982C140.98 135.819 139.62 130.978 141.73 127.217C143.84 123.457 148.623 122.141 152.421 124.303C156.219 126.465 157.579 131.307 155.422 135.067Z" fill="#B8E9F4"/>
<path id="Vector_94" d="M154.625 136.242C152.233 139.11 148.107 139.909 144.778 137.982C141.027 135.819 139.667 130.978 141.777 127.217C141.918 126.982 142.059 126.747 142.246 126.512C142.246 126.183 142.246 125.854 142.246 125.525C142.293 124.35 142.621 123.222 143.09 122.188C141.637 123.081 140.417 124.35 139.527 125.901C136.713 130.931 138.495 137.371 143.512 140.285C148.529 143.199 154.906 141.46 157.72 136.43C157.86 136.148 158.001 135.866 158.142 135.584C157.016 135.913 155.844 136.148 154.625 136.242Z" fill="#9FD4E2"/>
<g id="Group_14">
<path id="Vector_95" d="M143.512 125.055C142.621 125.713 141.871 126.512 141.308 127.546C139.198 131.307 140.511 136.148 144.309 138.311C147.263 140.003 150.827 139.58 153.265 137.512C150.874 139.251 147.544 139.533 144.778 137.935C141.027 135.772 139.667 130.931 141.777 127.17C142.246 126.371 142.856 125.666 143.512 125.055Z" fill="#E6FBFF"/>
<path id="Vector_96" d="M153.734 121.999C149.842 119.743 145.153 120.307 141.918 122.987C145.106 120.636 149.561 120.26 153.265 122.376C158.282 125.29 160.064 131.683 157.251 136.76C156.594 137.888 155.797 138.875 154.812 139.627C155.938 138.781 156.969 137.7 157.673 136.383C160.533 131.354 158.751 124.914 153.734 121.999Z" fill="#E6FBFF"/>
</g>
<g id="Group_15">
<path id="Vector_97" d="M150.545 115.372L151.811 119.085C152.702 119.367 153.593 119.743 154.437 120.213C154.578 120.307 154.765 120.401 154.906 120.495L158.517 119.226L161.049 122.047L159.408 125.337C160.017 126.465 160.439 127.64 160.72 128.909L163.956 130.461L163.768 134.033L164.284 133.845L164.518 130.038L161.283 128.486C161.002 127.264 160.58 126.042 159.97 124.914L161.611 121.623L159.079 118.803L155.469 120.072C155.328 119.978 155.141 119.884 155 119.79C154.156 119.32 153.265 118.944 152.374 118.662L151.108 114.949L147.31 114.714L147.123 115.137L150.545 115.372Z" fill="#B8E9F4"/>
<path id="Vector_98" d="M143.793 125.337C142.903 125.948 142.152 126.747 141.543 127.781C139.527 131.354 140.793 135.961 144.356 138.029C147.123 139.627 150.499 139.251 152.796 137.324C150.545 138.875 147.451 139.11 144.872 137.653C141.308 135.584 140.042 130.978 142.059 127.405C142.574 126.559 143.137 125.901 143.793 125.337Z" fill="#B8E9F4"/>
<path id="Vector_99" d="M142.105 119.884C142.996 119.414 143.981 119.085 144.966 118.803L145.106 118.521C144.262 118.756 143.418 119.085 142.621 119.461L138.87 117.628L138.401 118.051L142.105 119.884Z" fill="#B8E9F4"/>
<path id="Vector_100" d="M160.486 135.396C160.205 136.29 159.829 137.183 159.361 138.029C158.517 139.486 157.485 140.755 156.219 141.742C157.673 140.708 158.939 139.298 159.876 137.653C160.298 136.901 160.627 136.101 160.908 135.255L160.486 135.396Z" fill="#B8E9F4"/>
</g>
</g>
<g id="Group_16">
<path id="Vector_101" d="M108.673 76.4972C113.644 74.852 121.568 73.3478 128.554 76.8263L125.366 83.0311L111.252 82.326L108.673 76.4972Z" fill="#845D6A"/>
<path id="Vector_102" d="M93.2 214.649H143.043C143.043 208.303 141.683 189.877 118.051 172.955C97.3262 188.138 93.2 208.868 93.2 214.649Z" fill="#FFFCEE"/>
<path id="Vector_103" d="M88.7924 216.624H147.498C147.498 209.855 145.903 190.206 118.098 172.155C93.6219 188.373 88.7924 210.466 88.7924 216.624Z" fill="#E5DFC6"/>
<path id="Vector_104" d="M147.357 128.956H88.6517C88.6517 139.815 90.246 155.75 118.051 174.083C144.544 156.455 147.357 140.567 147.357 128.956Z" fill="#E5DFC6"/>
<g id="Group_17">
<path id="Vector_105" d="M118.614 136.289C129.586 136.289 139.339 138.499 145.622 141.93C147.029 137.183 147.357 132.858 147.357 128.956H88.6517C88.6517 132.858 88.8862 137.465 90.4335 142.588C96.6698 138.781 106.939 136.289 118.614 136.289Z" fill="#C6C0A7"/>
</g>
<path id="Vector_106" d="M145.2 128.956H90.7617C90.7617 139.768 92.2153 155.609 118.051 173.801C142.621 156.267 145.2 140.52 145.2 128.956Z" fill="#F9F1E1"/>
<path id="Vector_107" d="M130.711 128.956H105.297C105.297 139.533 106.001 155.092 118.004 172.955C129.492 155.75 130.711 140.285 130.711 128.956Z" fill="#FFFCEE"/>
<path id="Vector_108" d="M145.622 128.956H88.3704V134.926H145.622V128.956Z" fill="#C6C0A7"/>
<path id="Vector_109" d="M118.051 172.955C126.351 166.562 131.93 160.451 135.588 154.669C130.336 152.93 124.147 151.896 117.442 151.896C111.065 151.896 105.157 152.836 100.093 154.434C103.797 160.216 109.424 166.421 118.051 172.955Z" fill="#E8B152"/>
<path id="Vector_110" d="M118.004 172.955C123.959 166.562 129.68 159.605 132.306 153.823C125.929 150.674 109.424 150.579 103.703 153.494C106.376 159.323 111.815 166.421 118.004 172.955Z" fill="#F7C96B"/>
<path id="Vector_111" d="M150.921 126.512H83.1188C83.1188 129.144 85.2288 131.26 87.8546 131.26H146.278C148.811 131.26 150.921 129.144 150.921 126.512Z" fill="#141E46"/>
<path id="Vector_112" d="M113.784 126.512H100.14L101.546 131.26H115.191L113.784 126.512Z" fill="#404B77"/>
<path id="Vector_113" d="M135.025 126.512H98.686L101.921 129.615H133.243L135.025 126.512Z" fill="#404B77"/>
<path id="Vector_114" d="M126.444 126.512H136.291L135.26 131.26H125.46L126.444 126.512Z" fill="#404B77"/>
<path id="Vector_115" opacity="0.6" d="M108.251 138.311C108.251 138.311 108.908 156.22 118.333 167.314C118.333 167.314 125.507 156.079 125.366 138.311H108.251Z" fill="#FFFCEE"/>
<path id="Vector_116" d="M123.584 158.477C121.849 158.148 124.147 164.775 127.054 166.468C127.101 166.468 127.476 159.229 123.584 158.477Z" fill="#AF8C98"/>
<path id="Vector_117" d="M109.33 159.088C110.924 158.571 109.47 165.387 106.845 167.361C106.845 167.408 105.719 160.263 109.33 159.088Z" fill="#AF8C98"/>
<g id="Group_18">
<path id="Vector_118" d="M101.546 118.145C99.0142 119.226 97.5607 123.833 98.4516 128.016L107.689 159.088L110.033 159.417L104.406 128.58C104.313 128.11 104.406 127.546 104.594 127.17C104.782 126.747 105.063 126.512 105.344 126.512H131.93C132.118 126.512 132.306 126.7 132.399 126.935C132.493 127.217 132.493 127.546 132.446 127.828L122.928 158.759L125.694 159.135L137.792 127.64C139.011 124.115 137.885 119.555 135.588 118.568L125.929 114.243L112.847 113.35L101.546 118.145Z" fill="#664440"/>
<path id="Vector_119" d="M134.791 123.88C133.759 121.482 133.712 119.085 134.603 118.145L125.882 114.243L112.8 113.35L107.595 115.56C108.72 115.983 109.517 116.688 109.705 117.675C110.127 120.119 106.47 123.316 103.422 124.82C102.484 125.243 101.64 125.478 100.796 125.572C101.359 127.17 101.874 129.239 102.25 131.495C102.953 135.819 102.953 139.627 102.25 141.037L107.736 160.028L110.08 159.37L104.453 128.533C104.36 128.063 104.453 127.499 104.641 127.123C104.828 126.7 105.11 126.465 105.391 126.465H131.977C132.165 126.465 132.352 126.653 132.446 126.888C132.54 127.17 132.54 127.499 132.493 127.781L122.975 158.712L125.835 159.511L137.792 127.593C136.713 127.076 135.588 125.666 134.791 123.88Z" fill="#51332E"/>
</g>
<path id="Vector_120" d="M101.921 114.901C101.921 114.901 110.361 107.756 106.985 97.6971C103.891 88.4368 98.4985 79.5526 108.486 77.1552C130.524 71.7965 133.384 82.514 133.384 82.514L127.288 113.209L101.921 114.901Z" fill="#F7F4D5"/>
<path id="Vector_121" d="M115.941 80.5867L119.083 79.2706L116.691 75.369L115.754 76.4972L115.941 80.5867Z" fill="#FFFAD7"/>
<path id="Vector_122" d="M121.99 80.5867L119.083 79.2706L121.333 75.369L122.177 76.4972L121.99 80.5867Z" fill="#FFFAD7"/>
<path id="Vector_123" d="M118.614 77.6724L117.207 93.8896L118.098 98.2142L119.083 94.1717L119.505 77.6724H118.614Z" fill="#755D49"/>
<path id="Vector_124" d="M130.711 106.393C129.258 100 135.447 79.8817 135.447 79.8817L127.382 76.4032C127.382 76.4032 120.63 87.8728 118.145 98.2612C116.738 86.4626 109.236 76.4032 109.236 76.4032L99.6238 80.2107C99.6238 80.2107 108.627 99.5304 106.845 105.876C105.063 112.222 101.874 116.5 101.874 116.5L133.384 117.722C133.384 117.675 132.118 112.786 130.711 106.393Z" fill="#845D6A"/>
<path id="Vector_125" d="M130.899 77.8134C124.147 84.8174 118.942 96.8041 117.957 102.069C117.957 102.069 117.864 87.7788 128.507 76.8263L130.899 77.8134Z" fill="#6D4957"/>
<path id="Vector_126" d="M105.954 77.7664C112.659 84.7704 117.582 96.569 118.379 101.599C118.379 101.599 118.895 87.6848 108.345 76.7793L105.954 77.7664Z" fill="#6D4957"/>
<path id="Vector_127" d="M99.5769 80.1637C99.5769 80.1637 89.8708 97.5091 89.6832 100.235C89.4488 102.962 103.891 114.619 103.891 114.619L109.799 111.658L97.5137 100.612C97.5137 100.612 102.343 90.6462 103.14 86.3686C103.516 84.1593 102.203 81.0098 99.5769 80.1637Z" fill="#845D6A"/>
<g id="Group_19" opacity="0.7">
<path id="Vector_128" d="M108.345 110.342L103.609 112.739C103.609 112.739 92.1684 103.526 89.8239 99.5774C89.7301 99.8594 89.6832 100.094 89.6832 100.282C89.4488 103.009 103.891 114.666 103.891 114.666L109.799 111.705L108.345 110.342Z" fill="#AA6B52"/>
<path id="Vector_129" d="M96.4822 100.141L97.2793 100.894C98.5453 98.1672 102.109 91.0222 102.765 87.6378C102.953 86.8387 96.4822 100.141 96.4822 100.141Z" fill="#AA6B52"/>
</g>
<path id="Vector_130" d="M135.353 79.7876C135.353 79.7876 147.076 96.2399 147.685 98.9662C148.295 101.693 132.728 113.538 132.728 113.538L127.757 111.047L139.902 99.9064C139.902 99.9064 135.588 91.8213 133.196 87.8727C130.383 83.1721 132.868 80.8217 135.353 79.7876Z" fill="#845D6A"/>
<g id="Group_20" opacity="0.7">
<path id="Vector_131" d="M133.384 88.0138C135.4 91.3043 138.823 98.0262 139.855 99.9534L140.933 99.2013C136.15 88.5309 134.415 88.5309 133.384 88.0138Z" fill="#AA6B52"/>
<path id="Vector_132" d="M147.685 98.9663C147.544 98.3552 146.841 97.086 145.856 95.4408C146.607 96.992 147.122 98.2142 147.169 98.7783C147.498 101.223 133.618 110.342 130.43 112.41L132.727 113.538C132.727 113.538 148.342 101.693 147.685 98.9663Z" fill="#AA6B52"/>
</g>
<path id="Vector_133" d="M118.098 99.0604C116.832 89.7061 110.268 80.2578 107.314 76.8733L110.127 75.5571C114.488 81.4799 118.708 92.9965 118.098 99.0604Z" fill="#C497A8"/>
<path id="Vector_134" d="M118.192 98.8254C120.067 89.5181 127.195 80.4458 129.82 76.7793L127.335 75.5571C123.631 80.5868 117.957 92.8085 118.192 98.8254Z" fill="#C497A8"/>
<path id="Vector_135" d="M91.2306 214.649H144.966C144.966 208.303 143.512 189.877 118.051 172.955C95.6851 188.138 91.2306 208.868 91.2306 214.649Z" fill="#F9F1E1"/>
<path id="Vector_136" d="M101.64 214.649H134.603C134.603 208.303 133.712 189.877 118.098 172.955C104.36 188.138 101.64 208.868 101.64 214.649Z" fill="#FFFCEE"/>
<path id="Vector_137" d="M118.426 171.544L116.879 173.942L118.52 181.651L118.426 171.544Z" fill="#F7C96B"/>
<path id="Vector_138" d="M132.587 201.158C127.617 200.829 123.021 199.701 118.989 198.009C115.05 201.394 109.752 203.885 103.703 204.872C100.655 205.342 97.7013 205.389 94.888 205.107C93.622 209.385 93.2 212.816 93.2 214.696H143.043C143.043 211.97 142.809 207.081 140.699 201.017C138.073 201.3 135.4 201.347 132.587 201.158Z" fill="#F7C96B"/>
<path id="Vector_139" d="M141.074 202.287C139.948 207.88 130.055 212.205 118.051 212.205C108.204 212.205 99.8582 209.291 96.4822 205.201C95.9664 205.154 95.4506 205.154 94.9348 205.107C93.6688 209.385 93.2468 212.816 93.2468 214.696H143.043C143.043 212.158 142.809 207.739 141.074 202.287Z" fill="#E8B152"/>
<path id="Vector_140" d="M152.046 217.329C152.046 214.696 149.936 212.581 147.31 212.581H88.9331C86.3073 212.581 84.1973 214.696 84.1973 217.329H152.046Z" fill="#CC3A60"/>
<path id="Vector_141" d="M87.7608 214.367H149.326C149.983 214.367 150.639 214.508 151.249 214.743C150.405 213.474 148.951 212.628 147.31 212.628H88.9331C87.0106 212.628 85.3226 213.803 84.6193 215.495C85.4633 214.79 86.5417 214.367 87.7608 214.367Z" fill="#E55C86"/>
<path id="Vector_142" d="M118.239 185.27L117.911 184.988L117.395 185.505L117.723 185.834L118.239 185.27Z" fill="#F7C96B"/>
<path id="Vector_143" d="M117.676 178.313H117.16L117.067 179.018H117.582L117.676 178.313Z" fill="#F7C96B"/>
<path id="Vector_144" d="M117.817 182.45L117.348 182.027L116.738 182.638L117.254 183.108L117.817 182.45Z" fill="#F7C96B"/>
<path id="Vector_145" d="M119.552 179.394L119.13 179.253L118.755 179.864L119.223 180.053L119.552 179.394Z" fill="#F7C96B"/>
<path id="Vector_146" d="M120.536 189.36L119.974 189.454L120.021 190.159L120.63 190.065L120.536 189.36Z" fill="#F7C96B"/>
<path id="Vector_147" d="M121.802 196.035L121.568 196.505L122.131 197.022L122.365 196.552L121.802 196.035Z" fill="#F7C96B"/>
<path id="Vector_148" d="M117.348 195.095L116.879 195.236L116.973 195.988L117.442 195.847L117.348 195.095Z" fill="#F7C96B"/>
<path id="Vector_149" d="M119.927 193.449L119.692 193.026L119.083 193.355L119.317 193.778L119.927 193.449Z" fill="#F7C96B"/>
<path id="Vector_150" d="M118.286 187.621L117.864 187.762L117.957 188.514L118.379 188.326L118.286 187.621Z" fill="#F7C96B"/>
<path id="Vector_151" d="M119.552 183.813L119.083 183.954L119.177 184.706L119.645 184.565L119.552 183.813Z" fill="#F7C96B"/>
<path id="Vector_152" d="M107.407 214.367C107.407 214.132 103.281 213.897 98.2171 213.897C93.1531 213.897 89.0269 214.085 89.0269 214.367C89.0269 214.602 93.1531 214.837 98.2171 214.837C103.281 214.837 107.407 214.649 107.407 214.367Z" fill="#FF88B3"/>
<path id="Vector_153" d="M149.279 214.555C149.279 214.132 141.215 213.803 131.274 213.803C121.333 213.803 113.269 214.132 113.269 214.555C113.269 214.978 121.333 215.307 131.274 215.307C141.215 215.307 149.279 214.978 149.279 214.555Z" fill="#FF88B3"/>
<path id="Vector_154" opacity="0.7" d="M130.711 106.393C129.258 100 133.759 86.1336 133.759 86.1336C133.759 86.1336 128.132 94.8298 121.052 98.2142C124.897 94.5947 128.414 84.6764 123.865 76.0272C120.114 74.899 117.02 75.04 113.878 75.8391C108.626 86.4156 112.706 96.099 116.363 98.8723C108.673 97.0861 101.781 85.6635 101.781 85.6635C101.781 85.6635 108.392 100 106.798 105.876C105.063 112.222 101.828 116.5 101.828 116.5C120.489 117.863 113.034 118.944 133.337 117.722C133.384 117.675 132.118 112.786 130.711 106.393Z" fill="#AA6B52"/>
<path id="Vector_155" d="M129.07 206.188L128.836 205.624L128.132 205.812L128.367 206.376L129.07 206.188Z" fill="#E8B152"/>
<path id="Vector_156" d="M132.868 208.397L132.681 207.833L131.977 208.021L132.165 208.538L132.868 208.397Z" fill="#E8B152"/>
<path id="Vector_157" d="M135.166 204.825L134.931 204.261L134.228 204.449L134.462 205.013L135.166 204.825Z" fill="#E8B152"/>
<path id="Vector_158" d="M135.775 207.269L136.244 206.94L135.916 206.282L135.447 206.611L135.775 207.269Z" fill="#E8B152"/>
<path id="Vector_159" d="M122.6 208.397L122.178 208.256L121.709 208.915L122.178 209.056L122.6 208.397Z" fill="#E8B152"/>
<path id="Vector_160" d="M122.881 203.838L122.693 203.415L121.943 203.603L122.177 204.026L122.881 203.838Z" fill="#E8B152"/>
<path id="Vector_161" d="M124.897 206.188L125.319 205.859L124.897 205.295L124.475 205.624L124.897 206.188Z" fill="#E8B152"/>
<path id="Vector_162" d="M130.43 203.697L130.196 203.274L129.492 203.462L129.727 203.932L130.43 203.697Z" fill="#E8B152"/>
<g id="Group_21">
<path id="Vector_163" d="M136.01 101.223C136.057 100.847 135.916 100.424 135.635 100.142C135.353 99.8595 134.931 99.6715 134.462 99.6715H100.327C99.8582 99.6715 99.4362 99.8595 99.1549 100.142C98.8735 100.471 98.7329 100.847 98.7798 101.27L101.687 118.662H133.431L136.01 101.223Z" fill="#A7C9C3"/>
<path id="Vector_164" d="M100.796 113.068C105.204 110.436 111.628 108.791 118.802 108.697C124.803 108.65 130.243 109.684 134.509 111.517L136.057 101.223C136.104 100.847 135.963 100.424 135.682 100.142C135.4 99.8595 134.978 99.6715 134.509 99.6715H100.374C99.9052 99.6715 99.4832 99.8595 99.2019 100.142C98.9205 100.471 98.7799 100.847 98.8268 101.27L100.796 113.068Z" fill="#8DB2AC"/>
<path id="Vector_165" d="M98.8266 101.411C98.8735 101.176 98.9673 100.988 99.1549 100.8C99.4362 100.471 99.8582 100.329 100.327 100.329H134.462C134.931 100.329 135.353 100.518 135.635 100.8C135.822 100.988 135.916 101.176 135.963 101.411L136.01 101.176C136.057 100.8 135.916 100.376 135.635 100.094C135.353 99.8124 134.931 99.6244 134.462 99.6244H100.327C99.8582 99.6244 99.4362 99.8124 99.1549 100.094C98.8735 100.424 98.7329 100.8 98.7798 101.223L98.8266 101.411Z" fill="#C0E2DC"/>
</g>
<path id="Vector_166" d="M126.351 71.1384C126.913 69.2112 124.194 70.0103 124.1 71.6085C124.053 72.5486 123.819 73.8648 124.381 73.6768C124.803 73.5358 125.554 73.9118 126.351 71.1384Z" fill="#FFC7A1"/>
<path id="Vector_167" d="M125.553 71.5615C125.929 70.3393 124.147 70.8564 124.1 71.8435C124.053 72.4546 123.912 73.3007 124.287 73.1597C124.569 73.1127 125.038 73.3477 125.553 71.5615Z" fill="#E58D6E"/>
<path id="Vector_168" d="M111.627 71.2795C110.971 69.3992 113.644 70.2453 113.925 71.7966C114.066 72.6897 114.816 74.1939 114.3 74.3349C113.925 74.4289 112.8 74.758 111.627 71.2795Z" fill="#FFC7A1"/>
<path id="Vector_169" d="M112.331 71.7966C111.909 70.5744 113.644 71.1385 113.831 72.1726C113.925 72.7367 114.394 73.7239 114.066 73.7709C113.831 73.8179 113.081 74.0529 112.331 71.7966Z" fill="#E58D6E"/>
<path id="Vector_170" d="M125.694 58.6817C124.475 57.1775 121.333 56.2374 118.614 56.4724C117.395 56.4724 115.941 56.8015 114.3 57.6006C108.251 60.656 112.8 70.7624 113.55 73.8178L120.724 72.8307L121.333 69.9163L122.224 72.2196L124.85 72.4076C124.85 72.3606 127.288 60.609 125.694 58.6817Z" fill="#825231"/>
<path id="Vector_171" d="M118.848 66.2498C115.941 66.2498 112.706 64.5106 111.815 60.374C110.08 64.6516 112.987 71.4206 113.597 73.8179L120.771 72.8307L121.38 69.9163L122.271 72.2197L124.897 72.4077C124.897 72.4077 126.538 64.5106 126.257 60.562C124.71 63.5705 121.521 66.2498 118.848 66.2498Z" fill="#633C21"/>
<path id="Vector_172" d="M119.083 80.7278C124.194 80.3047 124.663 74.1939 124.616 68.9291C124.569 63.8994 122.084 57.8356 119.036 58.1176C116.035 58.3527 113.597 64.6515 113.362 68.6941C113.081 72.8777 114.816 80.5397 119.083 80.7278Z" fill="#FFC7A1"/>
<path id="Vector_173" d="M123.209 62.3953C123.115 60.421 121.146 58.7758 118.848 58.7758C116.551 58.7758 114.769 60.374 114.863 62.3953C114.957 64.3695 116.926 66.0148 119.223 66.0148C121.521 66.0148 123.303 64.4165 123.209 62.3953Z" fill="#F4B18C"/>
<path id="Vector_174" d="M123.115 61.267C123.021 59.0577 121.052 57.2715 118.754 57.2715C116.457 57.2715 114.675 59.0577 114.769 61.267C114.863 63.4763 116.832 65.2626 119.13 65.2626C121.427 65.2626 123.209 63.4763 123.115 61.267Z" fill="#825231"/>
<path id="Vector_175" d="M114.628 71.1384C114.628 71.1384 116.176 71.7495 118.051 70.6683C118.051 70.6683 118.473 71.9375 116.269 72.1255C114.628 72.2665 114.628 71.1384 114.628 71.1384Z" fill="#825231"/>
<path id="Vector_176" d="M120.255 70.8094C120.255 70.8094 121.521 71.7966 123.537 71.2795C123.537 71.2795 123.584 72.5957 121.521 72.1726C119.927 71.8436 120.255 70.8094 120.255 70.8094Z" fill="#825231"/>
<path id="Vector_177" d="M115.66 77.2023C115.66 77.2023 117.535 78.4714 119.317 77.2023C119.317 77.2023 120.489 78.7065 122.787 77.0612C122.787 77.0612 120.396 75.416 119.036 75.651C117.676 75.7921 115.66 77.2023 115.66 77.2023Z" fill="#825231"/>
<path id="Vector_178" d="M118.708 71.7965L118.145 75.369C118.145 75.369 118.848 77.0613 120.161 75.5101L119.599 71.6085L118.708 71.7965Z" fill="#F7AF8F"/>
<path id="Vector_179" d="M118.567 71.3265V75.087C118.567 75.087 118.942 76.8262 119.692 75.275V71.1384L118.567 71.3265Z" fill="#FFC7A1"/>
<path id="Vector_180" d="M120.161 109.543C120.161 108.65 118.848 107.898 117.207 107.898C115.566 107.898 114.253 108.603 114.206 109.496C114.206 110.389 115.519 111.141 117.16 111.141C118.801 111.141 120.161 110.436 120.161 109.543Z" fill="#C0E2DC"/>
<path id="Vector_181" d="M115.566 72.4546H117.066C117.113 72.4546 116.41 74.3349 115.566 72.4546Z" fill="#68463C"/>
<path id="Vector_182" d="M120.865 72.4546H122.365C122.412 72.4546 121.709 74.3349 120.865 72.4546Z" fill="#68463C"/>
<path id="Vector_183" d="M117.817 78.2834H120.396C120.396 78.2834 119.177 79.2236 117.817 78.2834Z" fill="#E58D6E"/>
<path id="Vector_184" opacity="0.4" d="M89.2143 212.628H88.933C88.7923 212.628 88.6516 212.628 88.511 212.628C88.4641 212.628 88.4172 212.628 88.3703 212.628C88.2765 212.628 88.1828 212.675 88.089 212.675C88.0421 212.675 87.9952 212.675 87.9483 212.722C87.8076 212.769 87.667 212.769 87.5732 212.816C87.5263 212.816 87.5263 212.816 87.4794 212.863C87.3856 212.91 87.245 212.957 87.1512 212.957C87.1043 212.957 87.0574 213.004 87.0105 213.004C86.9167 213.051 86.8699 213.051 86.7761 213.098C86.7292 213.145 86.6823 213.145 86.6354 213.192C86.5416 213.239 86.4947 213.286 86.401 213.333C86.3072 213.38 86.2603 213.427 86.1665 213.474C86.1196 213.521 86.0727 213.568 85.979 213.615C85.9321 213.662 85.8852 213.709 85.7914 213.756C85.7445 213.803 85.6976 213.85 85.6507 213.85C85.6038 213.897 85.557 213.944 85.4632 213.991C85.4163 214.038 85.4163 214.038 85.3694 214.085C85.2756 214.226 85.1818 214.32 85.0412 214.461C84.9943 214.508 84.9943 214.508 84.9474 214.555C84.9005 214.649 84.8536 214.696 84.8067 214.79C84.8067 214.837 84.7598 214.884 84.7598 214.884C84.713 214.978 84.6661 215.025 84.6192 215.119C84.6192 215.119 84.6192 215.119 84.6192 215.166C84.2909 215.824 84.1034 216.53 84.1034 217.329H151.952C151.952 216.154 151.53 215.072 150.827 214.273L150.78 214.226C150.686 214.085 150.545 213.991 150.452 213.897C150.405 213.85 150.405 213.85 150.358 213.803C150.264 213.709 150.123 213.615 150.03 213.521C149.983 213.521 149.983 213.474 149.936 213.474C149.654 213.286 149.326 213.098 148.998 212.957C148.951 212.957 148.904 212.91 148.857 212.91C148.717 212.863 148.623 212.816 148.482 212.769C148.435 212.769 148.388 212.722 148.295 212.722C148.154 212.675 148.06 212.675 147.92 212.628C147.873 212.628 147.826 212.628 147.779 212.581C147.591 212.581 147.404 212.534 147.216 212.534H147.263C147.029 210.372 146.56 207.692 145.622 204.731L90.0114 208.868C89.6832 210.278 89.4019 211.5 89.2143 212.628Z" fill="#AA6B52"/>
</g>
<g id="Group_22">
<g id="Group_23">
<g id="Group_24">
<path id="Vector_185" d="M74.2567 70.4334L67.9266 63.3824L49.7805 69.9634L65.8635 87.8728L74.2567 70.4334Z" fill="#B74B51"/>
<path id="Vector_186" d="M7.90845 117.628L14.2385 124.679L32.3846 118.098L16.3016 100.188L7.90845 117.628Z" fill="#B74B51"/>
<path id="Vector_187" d="M64.5975 127.311L71.6309 120.918L65.1133 102.727L47.2485 118.897L64.5975 127.311Z" fill="#B74B51"/>
<path id="Vector_188" d="M17.5677 60.75L10.5343 67.1429L17.0519 85.3344L34.9167 69.1642L17.5677 60.75Z" fill="#B74B51"/>
<path id="Vector_189" d="M34.2602 134.221L43.7318 134.738L51.9374 117.205L27.9302 115.983L34.2602 134.221Z" fill="#B74B51"/>
<path id="Vector_190" d="M47.905 53.8401L38.4334 53.323L30.2278 70.8564L54.2819 72.0786L47.905 53.8401Z" fill="#B74B51"/>
<path id="Vector_191" d="M0.968892 87.1677L0.5 96.663L17.9428 104.889L19.2088 80.8218L0.968892 87.1677Z" fill="#B74B51"/>
<path id="Vector_192" d="M81.1963 100.894L81.6652 91.3983L64.2224 83.1721L62.9564 107.239L81.1963 100.894Z" fill="#B74B51"/>
<path id="Vector_193" d="M9.40893 93.6546C8.89315 111.752 22.913 126.653 40.684 126.888C58.455 127.123 73.272 112.645 73.7878 94.5007C74.3036 76.4032 60.2837 61.5021 42.5127 61.2671C24.7417 61.079 9.92471 75.5571 9.40893 93.6546Z" fill="#B74B51"/>
<path id="Vector_194" d="M81.1963 100.894L81.2901 99.2954C73.694 102.68 64.9726 104.372 55.7823 103.902C36.9798 102.915 21.0844 93.0435 13.1601 79.2706C12.4567 80.6808 11.8003 82.138 11.2845 83.6422L0.968892 87.1677L0.5 96.663L10.0654 101.176C10.5812 103.667 11.3314 106.064 12.4099 108.321L7.95538 117.581L14.2854 124.632L23.335 121.341C25.7264 122.987 28.3522 124.303 31.1655 125.243L34.2602 134.174L43.7318 134.644L47.7174 126.136C50.6714 125.525 53.4848 124.491 56.1106 123.081L64.5975 127.217L71.6309 120.871L68.3955 111.799C69.9429 109.402 71.2558 106.769 72.1467 103.949L81.1963 100.894Z" fill="#99333D"/>
<g id="Group_25">
<path id="Vector_195" d="M33.2756 63.1473L33.6038 62.4422C31.2124 63.1003 28.9149 64.0405 26.758 65.2156L17.5677 60.75L16.583 61.6431L25.7733 66.1087C28.1177 64.8396 30.6498 63.8054 33.2756 63.1473Z" fill="#E26672"/>
<path id="Vector_196" d="M46.9203 54.7332L49.9681 63.4764C53.0159 64.3695 55.8293 65.6857 58.4082 67.3779L66.942 64.2755L73.272 71.3265L69.2864 79.5996C70.6462 82.279 71.6309 85.1934 72.2405 88.2958L80.6805 92.2914L80.2116 101.223L81.1494 100.894L81.6183 91.3983L73.1782 87.4027C72.6156 84.3473 71.584 81.3859 70.2242 78.7065L74.2098 70.4334L67.8798 63.3824L59.3459 66.4848C56.767 64.7926 53.9537 63.4764 50.9059 62.5833L47.8581 53.8401L38.3865 53.37L37.9645 54.2631L46.9203 54.7332Z" fill="#E26672"/>
<path id="Vector_197" d="M71.162 104.936C69.3802 110.389 66.2855 115.184 62.2531 118.991C66.6137 115.231 69.9898 110.295 71.9591 104.701L71.162 104.936Z" fill="#E26672"/>
</g>
</g>
<path id="Vector_198" d="M10.5812 93.1845C9.87789 109.966 23.2413 123.974 40.3559 124.491C57.5173 124.961 71.9592 111.799 72.6156 94.9707C73.319 78.1894 59.9555 64.1815 42.841 63.6644C25.7264 63.1943 11.2377 76.4032 10.5812 93.1845Z" fill="#E86774"/>
<path id="Vector_199" d="M42.841 63.7114C27.5551 63.2883 14.4261 73.7238 11.2845 87.8727C16.8644 83.5481 23.9446 81.0568 31.5876 81.2918C48.7021 81.8089 62.0655 95.8168 61.3622 112.598C61.2684 114.431 61.034 116.218 60.6589 117.957C67.5985 112.598 72.2405 104.372 72.6156 95.0647C73.3189 78.2364 60.0024 64.2285 42.841 63.7114Z" fill="#FF889F"/>
<path id="Vector_200" d="M11.519 93.2316C10.8625 109.496 23.7571 123.081 40.3558 123.551C56.9546 124.021 70.9745 111.235 71.6309 94.9708C72.2874 78.7065 59.3928 65.1217 42.7941 64.6516C26.1953 64.1815 12.2223 76.9673 11.519 93.2316Z" fill="#E86774"/>
<path id="Vector_201" d="M49.8274 103.103C33.2756 102.633 20.381 89.0949 20.9906 72.9247C15.4577 78.0954 11.8941 85.2404 11.5659 93.2315C10.9094 109.496 23.8039 123.081 40.4027 123.551C57.0015 124.021 71.0214 111.235 71.6778 94.9707C71.6778 94.9237 71.6778 94.8767 71.6778 94.8767C66.0042 100.188 58.2206 103.338 49.8274 103.103Z" fill="#D35365"/>
<path id="Vector_202" d="M16.4424 93.3725C15.8797 106.957 26.7111 118.333 40.5903 118.709C54.4695 119.132 66.1918 108.415 66.7545 94.8297C67.3171 81.2448 56.4857 69.8692 42.6065 69.4932C28.7273 69.0701 17.005 79.7876 16.4424 93.3725Z" fill="#963841"/>
<path id="Vector_203" d="M44.9509 108.979C31.4468 108.603 20.9436 97.5561 21.5063 84.3473C21.5532 82.8901 21.7876 81.4329 22.069 80.0227C19.1619 83.8302 17.3332 88.4839 17.1456 93.5606C16.5829 106.769 27.0861 117.816 40.5902 118.192C52.5469 118.521 62.8626 110.389 65.3946 99.2954C60.7526 105.359 53.2503 109.214 44.9509 108.979Z" fill="#FF889F"/>
<path id="Vector_204" d="M18.2241 93.4196C17.7083 106.064 27.7426 116.594 40.6371 116.97C53.5317 117.346 64.41 107.428 64.9257 94.7828C65.4415 82.138 55.4072 71.6086 42.5127 71.2325C29.6182 70.8565 18.7399 80.7748 18.2241 93.4196Z" fill="#F2C288"/>
<path id="Vector_205" d="M19.7715 93.4665C19.3026 105.265 28.6804 115.136 40.7309 115.466C52.7815 115.795 62.9564 106.534 63.4253 94.6887C63.8942 82.89 54.5164 73.0187 42.4658 72.6896C30.4153 72.3606 20.2404 81.6679 19.7715 93.4665Z" fill="#FFEBCC"/>
<path id="Vector_206" d="M39.7931 95.1588L38.4802 80.5398L41.1529 74.5229L43.2629 80.4928L40.7778 95.0178L39.7931 95.1588Z" fill="#F2C288"/>
<path id="Vector_207" d="M41.1529 95.4408L50.9527 97.18L53.9068 100.941L49.3585 101.693L40.9185 96.3809L41.1529 95.4408Z" fill="#F2C288"/>
<path id="Vector_208" d="M38.5741 77.0142C51.4686 77.3903 61.5029 87.9197 60.9871 100.564C60.8464 103.714 60.0962 106.722 58.7833 109.449C62.3938 105.547 64.7382 100.47 64.9727 94.7827C65.4885 82.1379 55.4542 71.6085 42.5597 71.2324C32.8536 70.9504 24.3198 76.4501 20.4749 84.5353C24.9293 79.7406 31.4469 76.7792 38.5741 77.0142Z" fill="#F2C288"/>
<path id="Vector_209" d="M37.8238 95.3938C37.73 96.851 38.8554 98.0732 40.3089 98.1672C41.7625 98.2612 42.9816 97.1331 43.0754 95.6759C43.1692 94.2187 42.0438 92.9965 40.5903 92.9025C39.1367 92.8555 37.8707 93.9366 37.8238 95.3938Z" fill="#F2C288"/>
<path id="Vector_210" d="M39.7462 94.0306C39.6993 95.0648 40.4965 95.9109 41.4811 95.9579C42.5127 96.0049 43.3567 95.2058 43.4036 94.2187C43.4505 93.1845 42.6534 92.3384 41.6687 92.2444C40.684 92.1974 39.7931 92.9965 39.7462 94.0306Z" fill="#963841"/>
<g id="Group_26">
<path id="Vector_211" d="M28.5866 106.534L28.0708 106.017L25.4919 108.556L26.0077 109.073L28.5866 106.534Z" fill="#75574C"/>
<path id="Vector_212" d="M56.9546 78.9885L56.4857 78.4714L53.813 81.0568L54.2819 81.5739L56.9546 78.9885Z" fill="#75574C"/>
<path id="Vector_213" d="M28.1178 81.2449L28.6804 80.7278L25.914 77.7664L25.3513 78.2834L28.1178 81.2449Z" fill="#75574C"/>
<path id="Vector_214" d="M55.8292 110.577L56.3919 110.013L53.5785 107.098L53.0627 107.615L55.8292 110.577Z" fill="#75574C"/>
<path id="Vector_215" d="M23.4757 93.8896L23.5226 93.1845L19.8652 93.1375L19.8184 93.7955L23.4757 93.8896Z" fill="#75574C"/>
<path id="Vector_216" d="M63.9411 94.7826L63.988 94.0775L60.19 93.9835L60.1431 94.6886L63.9411 94.7826Z" fill="#75574C"/>
<path id="Vector_217" d="M41.8093 76.3561H42.6064L42.794 72.4076H41.9969L41.8093 76.3561Z" fill="#75574C"/>
<path id="Vector_218" d="M39.887 115.513H40.6841L40.8716 111.564H40.0745L39.887 115.513Z" fill="#75574C"/>
</g>
<path id="Vector_219" d="M41.1998 93.4195L39.84 78.8005L42.5595 72.7837L44.6227 78.7535L42.1844 93.2785L41.1998 93.4195Z" fill="#D35365"/>
<path id="Vector_220" d="M42.5597 93.7017L52.3595 95.4409L55.2666 99.2484L50.7184 99.9535L42.2783 94.6888L42.5597 93.7017Z" fill="#D35365"/>
<path id="Vector_221" d="M67.4108 78.1895C66.1917 76.3092 64.9726 74.899 64.6913 75.087C64.4099 75.275 65.1602 76.9673 66.3793 78.8475C67.5984 80.7278 68.8175 82.138 69.0988 81.95C69.3802 81.809 68.63 80.1167 67.4108 78.1895Z" fill="#FFC5CD"/>
<path id="Vector_222" d="M60.8464 70.5744C59.6741 69.5872 58.5957 69.0232 58.3613 69.2582C58.1268 69.4932 58.9239 70.5274 60.0493 71.4675C61.2215 72.4546 62.2999 73.0187 62.5344 72.7837C62.7688 72.5486 62.0186 71.5145 60.8464 70.5744Z" fill="#FFC5CD"/>
<path id="Vector_223" d="M41.9969 83.5952C42.1844 79.7406 42.2782 75.6511 42.5126 72.8777L39.84 78.8005L40.9653 93.8896L42.1844 93.2785L42.2782 92.8084C41.9031 90.5991 41.8093 87.3087 41.9969 83.5952Z" fill="#963841"/>
<path id="Vector_224" d="M49.4054 97.6501C46.5451 96.522 44.1069 95.2528 42.4189 94.0776L41.7625 94.8768L50.6714 99.9535L54.657 99.3424C53.1096 98.9193 51.3278 98.3552 49.4054 97.6501Z" fill="#963841"/>
<path id="Vector_225" opacity="0.7" d="M39.3712 111.611C28.3991 109.496 21.2251 98.5903 23.1944 87.1677C22.7255 88.3429 22.3504 89.5651 22.1159 90.8813C20.0997 101.411 26.6642 111.47 36.7454 113.397C41.6218 114.337 46.4045 113.209 50.2963 110.577C46.9672 111.94 43.1692 112.316 39.3712 111.611Z" fill="#FFF8D9"/>
<g id="Group_27" opacity="0.7">
<path id="Vector_226" d="M47.4829 74.805C46.8734 74.6169 46.2638 74.4759 45.6543 74.3349C40.6371 73.3478 35.6669 74.5229 31.6813 77.2493C35.198 75.8861 39.0429 75.463 42.9816 76.2151C44.3882 76.4972 45.748 76.9202 47.014 77.4373L47.4829 74.805Z" fill="#FFF8D9"/>
<path id="Vector_227" d="M60.7525 89.894L58.5018 89.4709C59.8616 93.0904 60.3305 97.18 59.6272 101.364C60.0961 100.141 60.4712 98.8722 60.7525 97.5561C61.2214 94.9237 61.2214 92.3383 60.7525 89.894Z" fill="#FFF8D9"/>
</g>
<path id="Vector_228" d="M40.7309 94.0776C40.684 94.5477 41.0591 94.9707 41.5749 95.0177C42.0438 95.0648 42.4658 94.6887 42.5127 94.1716C42.5596 93.7016 42.1845 93.2785 41.6687 93.2315C41.1529 93.1845 40.7778 93.5605 40.7309 94.0776Z" fill="#F2C288"/>
</g>
</g>
<g id="Group_28">
<path id="Vector_229" d="M166.957 155.233L156.922 166.186L173.568 181.228L182.196 172.437L166.957 155.233Z" fill="#EFD1A0"/>
<path id="Vector_230" d="M170.192 169.288C173.427 172.72 175.209 176.715 175.068 179.676L182.149 172.437L166.957 155.233L159.079 163.835C162.127 163.365 166.535 165.386 170.192 169.288Z" fill="#E2C591"/>
<path id="Vector_231" d="M166.957 155.233L169.16 168.113L182.196 172.437L170.661 167.737L166.957 155.233Z" fill="#D3A479"/>
<path id="Vector_232" d="M166.675 155.75C166.675 155.75 167.894 166.891 167.472 167.314C167.05 167.737 159.689 164.07 159.689 164.07L166.675 155.75Z" fill="#EFD1A0"/>
<path id="Vector_233" d="M166.957 155.233L169.723 167.831L182.196 172.437L166.957 155.233Z" fill="#EFD1A0"/>
<path id="Vector_234" d="M159.876 163.694L156.922 166.186L172.911 180.664L176.006 171.92L159.876 163.694Z" fill="#B29262"/>
<path id="Vector_235" d="M154.859 160.451L150.733 176.997L169.113 183.249L176.475 168.536L154.859 160.451Z" fill="#FFF2BB"/>
<path id="Vector_236" d="M163.674 173.707C167.003 174.882 168.363 179.488 169.911 181.698L176.522 168.583L154.859 160.451L151.296 174.694C153.874 172.484 158.751 171.967 163.674 173.707Z" fill="#FCE7B4"/>
<path id="Vector_237" d="M155.141 161.344L162.83 175.587L174.975 169.288L163.112 174.741L155.141 161.344Z" fill="#E0AE80"/>
<path id="Vector_238" d="M154.859 160.451L163.065 175.164L176.475 168.536L154.859 160.451Z" fill="#FFF2BB"/>
<path id="Vector_239" d="M154.765 161.579C154.765 161.579 159.548 171.027 159.314 171.074C156.266 172.014 151.999 173.19 151.999 173.19L154.765 161.579Z" fill="#FFF2BB"/>
<path id="Vector_240" d="M169.864 181.369C169.864 181.369 167.097 174.976 167.379 173.989C167.613 173.002 175.162 170.651 175.162 170.651L169.864 181.369Z" fill="#FFF2BB"/>
<g id="Group_29">
<path id="Vector_241" d="M175.678 170.181L168.785 182.732L150.92 176.903L155.047 160.78L167.144 165.057L154.859 160.451L150.733 176.997L169.113 183.249L175.678 170.181Z" fill="#F2C697"/>
<path id="Vector_242" d="M175.678 170.181L176.616 168.395L167.144 165.057L176.475 168.536L175.678 170.181Z" fill="#F2C697"/>
</g>
<path id="Vector_243" d="M169.676 164.728C169.582 164.634 167.285 156.22 167.66 156.408C168.082 156.643 174.928 164.681 174.928 164.681L169.676 164.728Z" fill="#F7DAB0"/>
<path id="Vector_244" d="M169.113 183.249L154.437 177.937L150.733 176.997L169.113 183.249Z" fill="#C68B63"/>
<path id="Vector_245" d="M155.985 161.297L168.457 166.233C168.457 166.233 161.236 169.993 160.814 169.57C160.439 169.147 155.422 161.532 155.985 161.297Z" fill="#FFF7C5"/>
</g>
<g id="Group_30">
<path id="Vector_246" d="M169.208 121.106C169.63 137.089 183.602 149.592 200.436 148.981C217.269 148.37 230.585 134.926 230.163 118.897C229.741 102.915 215.768 90.4111 198.935 91.0222C182.102 91.6333 168.786 105.124 169.208 121.106Z" fill="#9EC2DD"/>
<path id="Vector_247" d="M211.22 129.144C194.387 129.756 180.414 117.252 179.992 101.27C179.945 100.188 179.992 99.1073 180.086 98.0261C173.24 103.573 168.926 111.94 169.16 121.106C169.582 137.089 183.555 149.592 200.389 148.981C216.097 148.417 228.71 136.665 230.023 122.14C224.959 126.277 218.394 128.862 211.22 129.144Z" fill="#4D7487"/>
<path id="Vector_248" d="M210.845 128.956C194.574 129.568 181.023 117.487 180.648 101.975C180.601 100.941 180.648 99.8595 180.742 98.8723C174.084 104.278 169.958 112.316 170.192 121.2C170.614 136.666 184.118 148.746 200.389 148.182C215.581 147.618 227.772 136.289 229.038 122.188C224.115 126.183 217.785 128.721 210.845 128.956Z" fill="#7099B2"/>
<path id="Vector_249" d="M173.896 120.965C174.224 134.503 186.087 145.08 200.342 144.563C214.596 144.046 225.849 132.67 225.521 119.085C225.193 105.547 213.33 94.9707 199.076 95.4878C184.774 96.0049 173.521 107.38 173.896 120.965Z" fill="#345A70"/>
<path id="Vector_250" d="M203.202 138.405C189.229 138.922 177.647 128.58 177.319 115.278C177.225 112.41 177.694 109.637 178.585 107.051C175.819 111.047 174.224 115.889 174.365 121.012C174.693 134.268 186.275 144.61 200.248 144.14C211.173 143.763 220.363 136.807 223.599 127.405C219.238 133.751 211.783 138.076 203.202 138.405Z" fill="#C5E9FF"/>
<path id="Vector_251" d="M175.209 120.918C175.537 133.751 186.791 143.811 200.295 143.293C213.799 142.823 224.49 131.965 224.161 119.132C223.833 106.299 212.58 96.2399 199.076 96.757C185.572 97.2271 174.881 108.039 175.209 120.918Z" fill="#F2C288"/>
<path id="Vector_252" d="M198.138 92.0563C214.971 91.4453 228.944 103.949 229.366 119.931C229.554 126.606 227.303 132.811 223.458 137.888C227.819 132.67 230.351 126.089 230.163 118.944C229.741 102.962 215.768 90.4581 198.935 91.0692C189.135 91.4453 180.508 96.1459 175.115 103.197C180.508 96.663 188.76 92.3854 198.138 92.0563Z" fill="#C5E9FF"/>
<path id="Vector_253" d="M176.334 121.247C176.663 133.281 187.166 142.682 199.826 142.212C212.486 141.742 222.52 131.636 222.192 119.555C221.864 107.521 211.361 98.1202 198.701 98.5903C186.041 99.0603 176.006 109.214 176.334 121.247Z" fill="#FFEBB3"/>
<path id="Vector_254" d="M195.747 102.163C208.829 101.693 219.707 111.423 220.035 123.88C220.129 127.875 219.144 131.683 217.316 134.973C221.207 130.79 223.505 125.29 223.364 119.32C223.036 106.863 212.158 97.1331 199.076 97.6031C190.167 97.9322 182.571 102.868 178.679 109.919C182.852 105.359 188.948 102.398 195.747 102.163Z" fill="#F2C288"/>
<path id="Vector_255" d="M219.941 99.1073C218.394 97.7441 216.659 96.992 216.472 97.2271C216.284 97.4621 217.691 98.5432 219.238 99.9064C220.785 101.27 221.911 102.351 222.145 102.163C222.286 101.928 221.489 100.471 219.941 99.1073Z" fill="#EEFFFF"/>
<path id="Vector_256" d="M213.002 94.7358C211.548 93.9367 210.095 93.6546 210.001 93.8427C209.907 94.0307 211.173 94.6418 212.627 95.4409C214.08 96.24 215.159 96.8981 215.252 96.7101C215.346 96.475 214.455 95.4879 213.002 94.7358Z" fill="#EEFFFF"/>
<path id="Vector_257" d="M177.741 138.311C179.57 140.144 181.68 141.225 181.914 140.99C182.149 140.708 180.508 139.251 178.679 137.371C176.85 135.537 175.537 134.033 175.256 134.315C174.975 134.55 175.866 136.477 177.741 138.311Z" fill="#9EC2DD"/>
<path id="Vector_258" d="M186.041 144.422C187.775 145.55 189.604 146.02 189.745 145.785C189.885 145.55 188.338 144.657 186.603 143.528C184.868 142.4 183.555 141.507 183.415 141.742C183.227 141.977 184.306 143.293 186.041 144.422Z" fill="#9EC2DD"/>
<path id="Vector_259" d="M195.747 121.012C195.747 122.752 197.153 124.162 198.888 124.162C200.623 124.162 202.03 122.752 202.03 121.012C202.03 119.273 200.623 117.863 198.888 117.863C197.153 117.863 195.747 119.273 195.747 121.012Z" fill="#F2C288"/>
<path id="Vector_260" d="M198.326 120.495L195.465 136.806L197.575 139.721L199.029 137.042L198.935 120.636L198.326 120.495Z" fill="#F2C288"/>
<path id="Vector_261" d="M198.654 121.106L214.877 117.675L216.847 114.619L213.799 114.196L198.56 120.495L198.654 121.106Z" fill="#F2C288"/>
<path id="Vector_262" d="M188.901 136.148L188.244 135.725L186.134 138.875L186.744 139.298L188.901 136.148Z" fill="#75574C"/>
<path id="Vector_263" d="M211.722 100.69L209.528 103.969L210.151 104.388L212.345 101.109L211.722 100.69Z" fill="#75574C"/>
<path id="Vector_264" d="M182.571 109.966L183.04 109.308L179.429 106.863L178.96 107.521L182.571 109.966Z" fill="#75574C"/>
<path id="Vector_265" d="M215.304 131.062L214.86 131.725L218.479 134.164L218.923 133.501L215.304 131.062Z" fill="#75574C"/>
<path id="Vector_266" d="M198.091 119.414C197.763 120.307 198.232 121.294 199.076 121.623C199.967 121.952 200.951 121.482 201.28 120.589C201.608 119.696 201.139 118.709 200.248 118.38C199.404 118.051 198.419 118.521 198.091 119.414Z" fill="#75574C"/>
<path id="Vector_267" d="M199.31 119.931L197.013 136.336L199.216 139.251L200.623 136.524L199.92 120.025L199.31 119.931Z" fill="#75574C"/>
<path id="Vector_268" d="M200.201 119.696L215.956 114.619L217.597 111.376L214.596 111.282L200.014 119.132L200.201 119.696Z" fill="#75574C"/>
<path id="Vector_269" d="M180.648 124.162L180.508 123.41L176.616 124.162L176.757 124.867L180.648 124.162Z" fill="#75574C"/>
<path id="Vector_270" d="M223.364 115.889L223.224 115.184L219.191 115.936L219.332 116.688L223.364 115.889Z" fill="#75574C"/>
<path id="Vector_271" d="M195.794 101.787L196.638 101.646L195.934 97.5092L195.09 97.6502L195.794 101.787Z" fill="#75574C"/>
<path id="Vector_272" d="M202.874 142.87L203.718 142.682L203.014 138.593L202.17 138.734L202.874 142.87Z" fill="#75574C"/>
<path id="Vector_273" d="M170.286 114.995L169.676 117.487L173.287 115.231L170.286 114.995Z" fill="#4D7487"/>
<path id="Vector_274" d="M198.935 119.743C198.794 120.119 198.982 120.495 199.357 120.636C199.732 120.777 200.107 120.589 200.248 120.213C200.389 119.837 200.201 119.461 199.826 119.32C199.451 119.179 199.076 119.367 198.935 119.743Z" fill="#F2C288"/>
<path id="Vector_275" opacity="0.7" d="M201.514 138.358C188.526 138.217 178.022 127.264 177.929 113.773C177.647 115.231 177.46 116.688 177.46 118.239C177.319 130.696 186.931 140.849 198.888 140.99C204.656 141.037 209.907 138.734 213.846 134.926C210.235 137.136 206.015 138.405 201.514 138.358Z" fill="#FFF8D9"/>
<g id="Group_31" opacity="0.7">
<path id="Vector_276" opacity="0.7" d="M218.113 107.145H214.596C218.675 111.329 221.161 117.111 221.207 123.504C221.489 122.14 221.629 120.73 221.629 119.32C221.77 114.76 220.41 110.577 218.113 107.145Z" fill="#FFF8D9"/>
<path id="Vector_277" opacity="0.7" d="M206.39 98.6372C204.843 98.2612 203.296 98.0262 201.655 97.9791C196.262 97.9321 191.339 100.094 187.635 103.667C191.011 101.599 194.949 100.423 199.17 100.423C201.702 100.47 204.14 100.894 206.39 101.74V98.6372Z" fill="#FFF8D9"/>
</g>
</g>
<g id="Group_32">
<path id="Vector_278" d="M166.347 217.423L167.003 235.097L192.277 235.99L187.4 226.542L192.511 215.73L166.347 217.423Z" fill="#404B77"/>
<path id="Vector_279" d="M57.3766 221.7L67.5515 232.371L36.7922 232.277L43.3098 226.871L39.0898 221.935L57.3766 221.7Z" fill="#404B77"/>
<path id="Vector_280" d="M173.662 235.285L51.7968 232.183L48.7959 213.145L180.039 210.889L173.662 235.285Z" fill="#141E46"/>
</g>
<g id="Group_33">
<path id="Vector_281" d="M208.641 53.793C208.829 34.6614 194.106 19.0082 175.725 18.8202C157.344 18.6322 142.293 34.0033 142.152 53.1349C141.965 72.2666 156.688 87.9198 175.068 88.1078C193.402 88.2488 208.454 72.8777 208.641 53.793Z" fill="#87DDD7"/>
<path id="Vector_282" d="M174.787 20.2303C193.168 20.4184 207.891 36.0715 207.703 55.2032C207.656 62.1131 205.64 68.506 202.264 73.8648C206.203 68.224 208.594 61.314 208.641 53.793C208.829 34.6613 194.105 19.0082 175.725 18.8201C163.956 18.7261 153.593 24.978 147.591 34.4733C153.687 25.7301 163.627 20.0893 174.787 20.2303Z" fill="#CCFFFA"/>
<path id="Vector_283" d="M142.293 50.0795C149.748 64.8865 166.019 75.181 184.962 75.369C191.48 75.416 197.669 74.2878 203.343 72.1726C206.297 67.4249 208.172 61.8311 208.547 55.8613C202.405 62.3952 193.871 66.4378 184.399 66.3438C166.019 66.1557 151.296 50.5026 151.483 31.3709C151.483 30.6658 151.53 29.9607 151.577 29.3026C146.419 34.7554 143.043 42.0414 142.293 50.0795Z" fill="#A5F2EA"/>
<path id="Vector_284" d="M175.49 86.3685C157.11 86.1805 142.387 70.5274 142.574 51.3957C142.621 48.5283 142.949 45.7549 143.606 43.1226C142.668 46.272 142.105 49.6565 142.105 53.1349C141.918 72.2666 156.641 87.9198 175.021 88.1078C190.636 88.2488 203.858 77.1553 207.563 62.0662C203.296 76.2621 190.542 86.5096 175.49 86.3685Z" fill="#3E7F77"/>
<path id="Vector_285" d="M204.046 53.7461C204.187 37.2468 191.48 23.7559 175.678 23.6149C159.829 23.4739 146.888 36.7297 146.7 53.182C146.56 69.6813 159.267 83.1721 175.068 83.3132C190.917 83.4542 203.905 70.1983 204.046 53.7461Z" fill="#438980"/>
<path id="Vector_286" d="M181.961 69.5402C166.113 69.3992 153.406 55.9084 153.593 39.4091C153.593 37.2938 153.828 35.2725 154.25 33.2982C149.654 38.5629 146.794 45.5199 146.7 53.182C146.56 69.6813 159.267 83.1721 175.068 83.3132C188.901 83.4542 200.529 73.3478 203.389 59.8099C198.091 65.8737 190.448 69.6343 181.961 69.5402Z" fill="#A1FFF6"/>
<path id="Vector_287" d="M202.827 53.699C202.967 37.9048 190.823 24.978 175.631 24.837C160.486 24.696 148.06 37.3877 147.92 53.1349C147.779 68.9291 159.923 81.8559 175.115 81.9969C190.26 82.1849 202.686 69.4932 202.827 53.699Z" fill="#F2C288"/>
<path id="Vector_288" d="M197.481 55.7673C197.622 42.3234 187.26 31.3239 174.365 31.2299C161.47 31.0889 150.874 41.9004 150.78 55.3442C150.639 68.7881 161.002 79.7876 173.896 79.9286C186.791 79.9756 197.341 69.2111 197.481 55.7673Z" fill="#FFEBB3"/>
<path id="Vector_289" d="M176.428 54.5922C176.428 53.511 175.537 52.6179 174.459 52.6179C173.38 52.6179 172.49 53.511 172.49 54.5922C172.49 55.6733 173.38 56.5665 174.459 56.5665C175.537 56.5665 176.428 55.6733 176.428 54.5922Z" fill="#F2C288"/>
<path id="Vector_290" d="M175.865 55.5793L180.789 68.3651L179.476 71.2795L177.835 69.0702L175.068 55.8144L175.865 55.5793Z" fill="#F2C288"/>
<path id="Vector_291" d="M172.911 54.2631L155.891 45.0968L154.437 40.7252L158.094 41.5243L173.474 53.1819L172.911 54.2631Z" fill="#F2C288"/>
<path id="Vector_292" d="M177.366 53.464C177.366 52.3829 176.475 51.4897 175.397 51.4897C174.318 51.4897 173.427 52.3829 173.427 53.464C173.427 54.5452 174.318 55.4383 175.397 55.4383C176.475 55.4383 177.366 54.5452 177.366 53.464Z" fill="#7F462F"/>
<path id="Vector_293" d="M176.522 55.2502L182.758 67.4719L181.774 70.4804L179.945 68.4591L175.725 55.6263L176.522 55.2502Z" fill="#7F462F"/>
<path id="Vector_294" d="M173.146 53.0409L156.782 42.7935L155.656 38.3279L159.22 39.409L173.802 52.0068L173.146 53.0409Z" fill="#7F462F"/>
<path id="Vector_295" opacity="0.7" d="M174.084 75.9331C159.923 73.9588 150.03 60.5619 151.811 45.8019C151.296 47.3531 150.92 48.9513 150.686 50.5965C148.81 64.1344 157.86 76.5911 170.848 78.3774C177.132 79.2705 183.18 77.4843 187.963 73.8648C183.743 75.839 178.96 76.5911 174.084 75.9331Z" fill="#FFF8D9"/>
<g id="Group_34" opacity="0.7">
<path id="Vector_296" d="M181.961 28.3625C181.211 28.1745 180.414 28.0335 179.617 27.8925C173.146 26.9993 166.91 28.8326 161.939 32.4991C166.3 30.5248 171.224 29.7257 176.288 30.4308C178.116 30.6659 179.851 31.1359 181.492 31.7L181.961 28.3625Z" fill="#FFF8D9"/>
<path id="Vector_297" d="M199.92 46.7891L197.013 46.4131C199.029 50.9727 199.873 56.1434 199.216 61.5022C199.732 59.904 200.154 58.2587 200.389 56.5665C200.857 53.182 200.67 49.8916 199.92 46.7891Z" fill="#FFF8D9"/>
</g>
<g id="Group_35">
<path id="Vector_298" d="M157.813 69.3992L157.25 68.7881L155.984 70.0102L156.5 70.6683L157.813 69.3992Z" fill="#7F462F"/>
<path id="Vector_299" d="M193.261 36.3535L192.699 35.6954L191.433 36.8706L191.995 37.4817L193.261 36.3535Z" fill="#7F462F"/>
<path id="Vector_300" d="M159.36 36.1656L160.017 35.5545L158.751 34.1913L158.094 34.8024L159.36 36.1656Z" fill="#7F462F"/>
<path id="Vector_301" d="M190.354 74.0057L191.011 73.3947L189.979 72.0785L189.323 72.6896L190.354 74.0057Z" fill="#7F462F"/>
<path id="Vector_302" d="M154.437 52.3828L154.531 51.5837L150.358 51.3016L150.264 52.1007L154.437 52.3828Z" fill="#7F462F"/>
<path id="Vector_303" d="M200.389 55.5322L200.482 54.7331L196.169 54.4041L196.075 55.2502L200.389 55.5322Z" fill="#7F462F"/>
<path id="Vector_304" d="M176.194 31.6059L177.085 31.6529L177.507 26.9993L176.616 26.9053L176.194 31.6059Z" fill="#7F462F"/>
<path id="Vector_305" d="M172.021 79.9287L172.912 79.9757L173.334 75.275L172.443 75.228L172.021 79.9287Z" fill="#7F462F"/>
</g>
<path id="Vector_306" d="M176.428 53.464C176.428 52.8529 175.959 52.3828 175.35 52.3828C174.74 52.3828 174.271 52.8529 174.271 53.464C174.271 54.075 174.74 54.5451 175.35 54.5451C175.959 54.5451 176.428 54.028 176.428 53.464Z" fill="#F2C288"/>
</g>
<g id="Group_36">
<path id="Vector_307" d="M92.8717 167.737C91.8401 160.404 85.135 155.327 77.8203 156.314C70.5055 157.348 65.4415 164.07 66.4262 171.403C67.4577 178.736 74.1629 183.813 81.4776 182.826C88.7923 181.792 93.9032 175.07 92.8717 167.737Z" fill="#69C6E2"/>
<path id="Vector_308" d="M81.6183 177.937C74.4442 178.924 67.786 173.989 66.6137 166.844C66.3324 168.301 66.2386 169.852 66.4262 171.403C67.4578 178.736 74.1629 183.813 81.4776 182.826C88.7923 181.792 93.8564 175.07 92.8717 167.737C92.8717 167.643 92.8248 167.549 92.8248 167.408C91.6995 172.814 87.3388 177.138 81.6183 177.937Z" fill="#4CABC1"/>
<path id="Vector_309" d="M95.7319 180.052C97.3261 177.326 96.7166 173.707 95.685 173.096C94.6534 172.484 93.575 175.117 91.9808 177.843C90.3865 180.57 88.8861 182.356 89.9176 182.967C90.9492 183.578 94.1377 182.779 95.7319 180.052Z" fill="#4CABC1"/>
<path id="Vector_310" d="M72.0059 153.964C71.8184 152.695 70.7868 151.802 69.6615 151.943C68.5361 152.084 67.7859 153.259 67.9266 154.528C68.1141 155.797 69.1457 156.69 70.271 156.549C71.3964 156.408 72.1935 155.233 72.0059 153.964Z" fill="#4CABC1"/>
<g id="Group_37">
<path id="Vector_311" d="M78.8049 162.002C78.9925 162.425 79.1801 162.895 79.2738 163.412C79.4145 163.929 79.5552 164.446 79.6958 164.963V165.01C79.6958 165.057 79.6489 165.104 79.5552 165.151C79.0863 165.245 78.6643 165.386 78.1954 165.48C77.7265 165.622 77.2576 165.763 76.7418 165.951C76.7418 165.998 76.7418 166.045 76.7418 166.092C76.7418 166.139 76.7887 166.186 76.7887 166.233C76.7887 166.28 76.8356 166.374 76.8356 166.421C76.8356 166.468 76.8825 166.562 76.8825 166.609C77.0231 166.562 77.1638 166.515 77.3045 166.468C77.4452 166.421 77.5858 166.374 77.6796 166.374C78.5236 166.186 79.1801 166.186 79.7427 166.421C80.3054 166.656 80.6336 167.079 80.7743 167.69C80.915 168.254 80.8681 168.724 80.7274 169.1C80.5398 169.523 80.3054 169.852 79.9303 170.134C79.5552 170.416 79.1332 170.651 78.5705 170.839C78.0547 171.027 77.4452 171.215 76.8356 171.356C76.7418 171.403 76.648 171.356 76.6011 171.262C76.5074 171.074 76.4136 170.933 76.3667 170.745C76.2729 170.557 76.226 170.416 76.1791 170.228C76.1791 170.181 76.1791 170.134 76.2729 170.087C76.648 169.946 76.9763 169.852 77.2107 169.711C77.4452 169.57 77.6327 169.476 77.7734 169.335C77.914 169.194 78.0078 169.1 78.0547 168.959C78.1016 168.818 78.1016 168.724 78.0547 168.583C78.0547 168.489 78.0078 168.442 77.9609 168.348C77.914 168.301 77.8672 168.207 77.7734 168.207C77.6796 168.16 77.5858 168.16 77.492 168.16C77.3514 168.16 77.2107 168.16 76.9763 168.207C76.7887 168.254 76.648 168.301 76.5074 168.348C76.3667 168.395 76.1791 168.489 76.0385 168.583C75.9916 168.63 75.8978 168.677 75.804 168.677C75.7571 168.677 75.7103 168.677 75.7103 168.583C75.5227 168.16 75.3351 167.69 75.1476 167.22C74.96 166.75 74.7725 166.28 74.6318 165.81C74.4442 165.339 74.3036 164.869 74.2098 164.446C74.0691 164.023 73.9754 163.647 73.9285 163.271C73.9285 163.177 73.9754 163.083 74.116 162.989C74.2567 162.895 74.4911 162.801 74.8194 162.66C75.1476 162.566 75.5696 162.425 76.1323 162.284C76.6949 162.143 77.3514 162.002 78.1485 161.814C78.3829 161.767 78.5705 161.72 78.6643 161.72C78.6643 161.908 78.758 161.955 78.8049 162.002Z" fill="#EBFBFF"/>
<path id="Vector_312" d="M79.649 172.108C79.7896 172.39 79.8834 172.719 80.0241 173.002C80.1178 173.284 80.2585 173.613 80.3523 173.895C80.5398 174.412 80.7274 174.882 80.8681 175.399C81.0556 175.916 81.1963 176.386 81.3838 176.903C81.4307 176.997 81.3838 177.044 81.337 177.091C81.2901 177.138 81.1963 177.138 81.1025 177.185C80.6805 177.326 80.3523 177.467 80.1178 177.514C79.8834 177.608 79.7427 177.655 79.6021 177.655C79.5083 177.655 79.4145 177.655 79.4145 177.655C79.4145 177.608 79.3676 177.561 79.3676 177.514C79.2738 177.232 79.1801 176.997 79.1332 176.809C79.0863 176.621 78.9925 176.433 78.9456 176.245C78.9456 176.856 78.8987 177.373 78.8049 177.89C78.8049 177.937 78.8049 177.984 78.7581 177.984C78.7112 177.984 78.6643 178.031 78.5705 178.078C78.4767 178.125 78.4298 178.125 78.3829 178.125C78.3361 178.125 78.336 178.125 78.2892 178.078C78.0547 177.89 77.8203 177.749 77.6327 177.561C77.3983 177.373 77.2107 177.138 76.9763 176.903C77.0232 176.997 77.07 177.138 77.1638 177.279C77.2107 177.42 77.3045 177.655 77.3983 177.937C77.4452 178.125 77.492 178.219 77.492 178.266C77.492 178.313 77.492 178.36 77.4452 178.36C77.3983 178.407 77.3514 178.407 77.2576 178.454C77.1638 178.501 76.9763 178.595 76.7418 178.642C76.648 178.689 76.6012 178.689 76.5543 178.689C76.5074 178.689 76.5074 178.642 76.4605 178.595C76.2729 178.125 76.0854 177.655 75.8978 177.185C75.7103 176.715 75.5227 176.245 75.382 175.728C75.2414 175.399 75.1476 175.07 75.0538 174.741C74.96 174.412 74.8194 174.083 74.7256 173.754C74.7256 173.754 74.7256 173.707 74.7725 173.66C74.8194 173.613 74.8194 173.613 74.8663 173.566C74.9131 173.519 74.96 173.519 75.0069 173.472C75.0538 173.472 75.1476 173.425 75.1945 173.425C75.2414 173.425 75.2883 173.378 75.3351 173.378C75.4289 173.331 75.4758 173.331 75.5696 173.284C75.6634 173.237 75.7571 173.237 75.8509 173.237C75.9447 173.237 75.9916 173.237 76.0385 173.284C76.2729 173.519 76.5074 173.707 76.7887 173.942C77.0232 174.13 77.3045 174.318 77.5858 174.506C77.6796 174.224 77.7734 173.895 77.8203 173.566C77.8672 173.237 77.914 172.907 77.9609 172.578C77.9609 172.531 78.0078 172.484 78.0547 172.437C78.1016 172.39 78.1954 172.343 78.2892 172.296C78.3829 172.249 78.4767 172.202 78.5705 172.155C78.6643 172.108 78.7581 172.061 78.8518 172.061C79.1332 171.967 79.3207 171.873 79.4614 171.873C79.5552 172.061 79.6021 172.061 79.649 172.108Z" fill="#EBFBFF"/>
<path id="Vector_313" d="M82.6499 171.168C82.6499 171.215 82.6967 171.309 82.7436 171.403C82.7905 171.497 82.8374 171.638 82.8843 171.873C82.9312 172.108 83.0719 172.39 83.1656 172.767C83.3063 173.143 83.447 173.66 83.6814 174.318C83.8221 174.741 83.9159 175.07 84.0096 175.352C84.1034 175.634 84.1972 175.869 84.2441 176.057C84.2441 176.104 84.2441 176.151 84.2441 176.198C84.1972 176.198 84.1972 176.245 84.1503 176.245C84.0565 176.292 83.9628 176.339 83.869 176.339C83.7752 176.386 83.6814 176.433 83.5876 176.433C83.4001 176.48 83.2125 176.574 83.025 176.621C82.8374 176.668 82.6499 176.715 82.5092 176.762C82.4623 176.762 82.4154 176.762 82.3685 176.762C82.3216 176.715 82.3216 176.668 82.2747 176.621C81.9465 175.916 81.6652 175.211 81.337 174.412C81.0087 173.66 80.7274 172.861 80.3992 172.014C80.3992 171.967 80.3992 171.92 80.3992 171.92C80.3992 171.873 80.4461 171.873 80.5398 171.826C80.6336 171.779 80.7274 171.732 80.8681 171.685C81.0087 171.638 81.1494 171.591 81.2901 171.544C81.5245 171.45 81.759 171.403 81.9465 171.309C82.181 171.262 82.3685 171.168 82.5561 171.121C82.603 171.121 82.6499 171.121 82.6499 171.121C82.6499 171.074 82.6499 171.121 82.6499 171.168Z" fill="#EBFBFF"/>
<path id="Vector_314" d="M87.2449 169.429C87.2449 169.429 87.2918 169.476 87.2918 169.523C87.2918 169.57 87.3387 169.617 87.3856 169.664C87.4325 169.758 87.4325 169.852 87.5263 169.993C87.5732 170.134 87.6201 170.322 87.7138 170.557C87.8076 170.839 87.9483 171.121 88.0421 171.45C88.1358 171.732 88.2765 172.061 88.3703 172.39C88.5578 172.861 88.6985 173.237 88.7923 173.566C88.8861 173.848 88.933 174.036 88.9798 174.13C89.0267 174.224 89.0267 174.318 89.0267 174.365C89.0267 174.412 89.0267 174.412 89.0267 174.459L88.9798 174.506C88.9798 174.506 88.933 174.553 88.8861 174.553C88.8392 174.553 88.7923 174.6 88.6985 174.647C88.6047 174.694 88.511 174.741 88.3703 174.788C88.1827 174.882 87.9952 174.929 87.9014 174.929C87.7607 174.976 87.667 174.976 87.6201 174.976C87.5263 174.976 87.4794 174.976 87.4325 174.929C87.3856 174.882 87.2918 174.835 87.1981 174.788C87.0105 174.647 86.7761 174.459 86.4947 174.318C86.2134 174.13 85.9789 173.989 85.6976 173.848C85.7914 174.036 85.8383 174.177 85.8852 174.318C85.9321 174.459 85.9789 174.6 86.0258 174.694C86.0727 174.788 86.1196 174.929 86.1665 175.023C86.2134 175.117 86.2603 175.211 86.2603 175.305C86.2603 175.352 86.3072 175.399 86.3072 175.446C86.3072 175.493 86.3072 175.493 86.2603 175.54C86.2134 175.587 86.1665 175.587 86.1196 175.634C86.0727 175.681 85.9789 175.728 85.8383 175.728C85.6976 175.775 85.6038 175.822 85.5569 175.822C85.4632 175.869 85.4163 175.869 85.3694 175.869C85.3225 175.869 85.2756 175.869 85.2756 175.869C85.2287 175.869 85.2287 175.869 85.1818 175.869C85.1349 175.869 85.088 175.822 85.088 175.728C85.0412 175.634 85.0412 175.587 84.9943 175.493C84.9474 175.399 84.9005 175.258 84.8536 175.117C84.8067 174.929 84.7129 174.741 84.6191 174.506C84.5254 174.271 84.4316 174.036 84.3378 173.754C84.244 173.472 84.1503 173.19 84.0096 172.908C83.9158 172.626 83.7751 172.343 83.6814 172.014C83.5876 171.732 83.4938 171.45 83.4 171.168C83.3531 171.074 83.3531 171.027 83.4 170.98C83.4469 170.933 83.4938 170.886 83.5876 170.839C83.7751 170.745 83.9627 170.698 84.1034 170.604C84.244 170.557 84.3378 170.51 84.4316 170.463C84.5723 170.416 84.666 170.416 84.7129 170.369C84.7598 170.369 84.8536 170.369 84.9005 170.416C85.0412 170.463 85.2287 170.557 85.4163 170.651C85.6038 170.745 85.7445 170.839 85.8852 170.933C86.0258 171.027 86.2134 171.168 86.3541 171.262C86.4947 171.356 86.6354 171.497 86.7761 171.591C86.6823 171.356 86.5885 171.074 86.4947 170.839C86.4009 170.604 86.3072 170.322 86.2134 170.087C86.1665 170.04 86.1665 169.946 86.1665 169.946C86.1665 169.899 86.1665 169.899 86.1665 169.852C86.1665 169.852 86.1665 169.852 86.2134 169.805C86.2134 169.805 86.2603 169.805 86.2603 169.758C86.3072 169.758 86.3541 169.711 86.4009 169.711C86.4478 169.711 86.5416 169.664 86.6354 169.617C86.8229 169.57 86.9167 169.523 87.0105 169.476C87.1043 169.429 87.1512 169.429 87.1981 169.429C87.1981 169.382 87.1981 169.382 87.2449 169.429C87.2449 169.382 87.2449 169.382 87.2449 169.429Z" fill="#EBFBFF"/>
</g>
<path id="Vector_315" d="M72.0059 153.964C71.8184 152.695 70.7868 151.802 69.6615 151.943C68.5361 152.084 67.7859 153.259 67.9266 154.528C68.1141 155.797 69.1457 156.69 70.271 156.549C71.3964 156.408 72.1935 155.233 72.0059 153.964Z" fill="#4CABC1"/>
<path id="Vector_316" d="M71.3027 153.917C71.2089 153.118 70.5525 152.601 69.8491 152.695C69.1458 152.789 68.6769 153.494 68.8176 154.293C68.9113 155.092 69.5678 155.609 70.2711 155.515C70.9276 155.421 71.3965 154.716 71.3027 153.917Z" fill="#69C6E2"/>
<path id="Vector_317" d="M95.5912 178.501C96.6697 176.668 96.2477 174.224 95.5443 173.801C94.841 173.378 94.1377 175.164 93.0592 176.997C91.9808 178.83 90.9492 180.053 91.6525 180.476C92.3559 180.899 94.5128 180.382 95.5912 178.501Z" fill="#69C6E2"/>
</g>
<g id="Group_38">
<path id="Vector_318" d="M80.1647 25.7301C74.2567 23.2388 67.5516 26.0121 65.1133 31.888C62.722 37.7638 65.5353 44.5797 71.4434 47.0711C77.3514 49.5624 84.1034 46.789 86.4948 40.9132C88.8861 35.0374 86.0728 28.2215 80.1647 25.7301ZM83.8221 39.8321C81.9934 44.2507 76.9294 46.319 72.5218 44.4857C68.1142 42.6054 65.9573 37.5287 67.786 33.0631C69.6147 28.6445 74.6787 26.5762 79.0863 28.4095C83.4939 30.2897 85.6508 35.3664 83.8221 39.8321Z" fill="#457784"/>
<path id="Vector_319" d="M83.5408 40.3961C81.5245 44.3917 76.7418 46.2249 72.5218 44.4387C68.1142 42.5584 65.9573 37.4817 67.786 33.0161C67.8329 32.8751 67.8798 32.781 67.9736 32.64C67.6922 31.7469 67.4578 30.8068 67.4109 29.8666C67.364 29.3496 67.4109 28.8795 67.4109 28.3624C66.4731 29.3496 65.676 30.5247 65.1133 31.8879C62.722 37.7637 65.5353 44.5797 71.4434 47.071C77.3514 49.5624 84.1034 46.789 86.4948 40.9132C86.7761 40.2551 86.9637 39.597 87.1043 38.9389C85.979 39.597 84.8068 40.0671 83.5408 40.3961Z" fill="#5893A0"/>
<path id="Vector_320" d="M82.4624 20.1834C73.4596 16.3758 63.2378 20.6064 59.5335 29.5847C55.8762 38.5629 60.1431 48.9043 69.1458 52.7119C78.1486 56.5194 88.3704 52.2888 92.0746 43.3106C95.732 34.3323 91.4182 23.9439 82.4624 20.1834ZM85.135 40.3962C83.025 45.5669 77.117 47.9642 71.9592 45.8019C66.8014 43.6396 64.3162 37.6698 66.4263 32.4991C68.5363 27.3284 74.4443 24.931 79.6021 27.0933C84.8068 29.2556 87.2451 35.2254 85.135 40.3962Z" fill="#7BADBF"/>
<path id="Vector_321" d="M91.6526 21.5465L87.8076 18.162L78.4298 22.8626L88.2765 31.4648L91.6526 21.5465Z" fill="#7BADBF"/>
<path id="Vector_322" d="M58.8771 51.2076L62.722 54.639L72.0998 49.9384L62.3 41.2892L58.8771 51.2076Z" fill="#7BADBF"/>
<path id="Vector_323" d="M90.0584 52.8059L93.4813 48.9514L88.7924 39.55L80.1648 49.3744L90.0584 52.8059Z" fill="#7BADBF"/>
<path id="Vector_324" d="M60.4714 19.9482L57.0953 23.8028L61.7843 33.2041L70.365 23.3797L60.4714 19.9482Z" fill="#7BADBF"/>
<path id="Vector_325" d="M74.163 58.4936L79.2739 58.1646L82.6031 48.1992L69.5679 49.0453L74.163 58.4936Z" fill="#7BADBF"/>
<path id="Vector_326" d="M76.4137 14.2605L71.2559 14.5895L67.9736 24.5549L81.0088 23.7088L76.4137 14.2605Z" fill="#7BADBF"/>
<path id="Vector_327" d="M53.2035 35.2254L53.5317 40.3961L63.4722 43.7336L62.6282 30.6658L53.2035 35.2254Z" fill="#7BADBF"/>
<path id="Vector_328" d="M97.3262 37.5287L96.998 32.358L87.0575 29.0675L87.9015 42.0883L97.3262 37.5287Z" fill="#7BADBF"/>
<path id="Vector_329" d="M92.0746 43.3105C92.2622 42.8404 92.4497 42.3233 92.5904 41.8533C90.9962 42.2763 89.3081 42.5114 87.5732 42.6524C86.3072 42.7464 85.0881 42.7464 83.869 42.6524C81.1963 46.2249 76.3198 47.6351 72.006 45.8018C67.4109 43.8746 64.9727 38.9389 65.9573 34.1912C62.5813 30.4777 60.3775 25.7301 60.0024 20.5123L57.0953 23.8028L59.768 29.1145C59.7211 29.2555 59.6273 29.3966 59.5804 29.5376C59.1584 30.5247 58.8771 31.5589 58.6426 32.593L53.2504 35.2254L53.5786 40.3961L59.346 42.3233C59.768 43.4515 60.2837 44.4856 60.8933 45.5198L58.924 51.2546L62.8158 54.6391L67.9267 52.1007C68.3487 52.3357 68.7707 52.5238 69.2396 52.7118C70.0836 53.0878 70.9745 53.3699 71.8185 53.5579L74.2098 58.4936L79.3676 58.1645L80.9619 53.3699C82.603 52.8998 84.1503 52.1477 85.6039 51.2546L90.1522 52.8528L93.5282 48.9513L91.4182 44.7677C91.6057 44.2976 91.8402 43.7806 92.0746 43.3105Z" fill="#659AA8"/>
<path id="Vector_330" d="M81.1494 23.3327C73.8816 20.2773 65.6291 23.6618 62.6751 30.9008C59.7211 38.1398 63.1909 46.507 70.4118 49.5624C77.6796 52.6178 85.9321 49.2333 88.8862 41.9943C91.8871 34.7083 88.4173 26.3882 81.1494 23.3327ZM85.6508 40.5841C83.447 46.0369 77.2107 48.5752 71.7716 46.2719C66.3325 43.9686 63.7536 37.7167 65.9573 32.264C68.208 26.8112 74.3974 24.2729 79.8365 26.5762C85.2757 28.8795 87.8546 35.1314 85.6508 40.5841Z" fill="#B8E9F4"/>
<path id="Vector_331" d="M84.7599 42.3234C82.0403 46.554 76.6012 48.3402 71.7716 46.2719C66.3324 43.9686 63.7535 37.7167 65.9573 32.264C66.098 31.8879 66.2856 31.5589 66.4731 31.2298C66.3793 30.8068 66.3324 30.3367 66.2856 29.8666C66.1918 28.2684 66.4262 26.7172 66.8951 25.26C65.1133 26.7172 63.6598 28.5975 62.722 30.8538C59.768 38.0928 63.2378 46.4599 70.4587 49.5154C77.7265 52.5708 85.979 49.1863 88.933 41.9473C89.1206 41.5243 89.2613 41.1482 89.355 40.7251C87.9484 41.4773 86.401 41.9943 84.7599 42.3234Z" fill="#9FD4E2"/>
<g id="Group_39">
<path id="Vector_332" d="M67.9736 29.1615C66.8951 30.1486 66.0043 31.4178 65.4416 32.875C63.2378 38.3278 65.8167 44.5796 71.2558 46.883C75.5228 48.6692 80.2117 47.494 83.1188 44.2976C80.1648 47.071 75.8041 47.9641 71.8185 46.2719C66.3794 43.9686 63.8005 37.7167 66.0042 32.2639C66.4263 31.0888 67.1296 30.0546 67.9736 29.1615Z" fill="#E6FBFF"/>
<path id="Vector_333" d="M81.1494 23.3327C75.5227 20.9824 69.3333 22.4866 65.4415 26.6232C69.3802 22.9097 75.2414 21.6405 80.5867 23.8968C87.8077 26.9522 91.2775 35.3194 88.3235 42.5584C87.667 44.2036 86.6823 45.6138 85.557 46.836C86.9637 45.5198 88.089 43.8746 88.8861 41.9943C91.887 34.7083 88.4172 26.3881 81.1494 23.3327Z" fill="#E6FBFF"/>
</g>
<g id="Group_40">
<path id="Vector_334" d="M75.7572 14.9186L78.1016 19.7132C79.3676 19.9483 80.5867 20.3243 81.8059 20.8414C82.0403 20.9354 82.2747 21.0294 82.5092 21.1704L87.1512 18.8201L91.043 22.2046L89.4019 26.9052C90.3866 28.3154 91.1837 29.8667 91.7464 31.4649L96.3415 33.0161L96.6697 37.8578L97.3262 37.5287L96.998 32.358L92.4028 30.8538C91.8401 29.2086 91.043 27.7044 90.0584 26.2942L91.6995 21.5935L87.8077 18.209L83.1656 20.5594C82.9312 20.4653 82.6968 20.3713 82.4623 20.2303C81.2432 19.7132 79.9772 19.3372 78.7581 19.1022L76.4136 14.3075L71.2558 14.6365L71.0682 15.2476L75.7572 14.9186Z" fill="#B8E9F4"/>
<path id="Vector_335" d="M68.3955 29.4906C67.3171 30.4777 66.3793 31.6999 65.8166 33.1571C63.7066 38.3278 66.1917 44.2506 71.3495 46.4599C75.382 48.1522 79.7896 47.071 82.6029 44.0626C79.7896 46.554 75.7102 47.3531 72.006 45.8019C66.8482 43.6396 64.363 37.6697 66.4731 32.499C66.9419 31.3239 67.5984 30.3367 68.3955 29.4906Z" fill="#B8E9F4"/>
<path id="Vector_336" d="M65.1602 22.4396C66.2855 21.6405 67.5515 21.0294 68.8175 20.5123L68.9582 20.0893C67.8329 20.5593 66.8013 21.1234 65.7697 21.7815L60.4244 19.9482L59.8617 20.6063L65.1602 22.4396Z" fill="#B8E9F4"/>
<path id="Vector_337" d="M92.4497 40.2081C92.2152 41.4772 91.887 42.6994 91.3712 43.9216C90.5272 46.0369 89.2612 47.8701 87.7607 49.4214C89.5425 47.7761 91.043 45.7078 92.0277 43.2635C92.4965 42.1353 92.8248 41.0072 93.0123 39.879L92.4497 40.2081Z" fill="#B8E9F4"/>
</g>
</g>
<g id="Group_41">
<path id="Vector_338" d="M39.1836 17.786C35.4793 17.128 32.0095 19.6193 31.4 23.2858C30.7904 26.9523 33.3224 30.4778 36.9798 31.1359C40.684 31.794 44.1538 29.3026 44.7634 25.6361C45.3729 21.9696 42.8409 18.4441 39.1836 17.786ZM43.0754 25.3541C42.6065 28.1275 40.0276 29.9607 37.2611 29.4907C34.4946 29.0206 32.6191 26.3882 33.0411 23.6149C33.51 20.8415 36.0889 19.0082 38.8553 19.4783C41.6687 19.9483 43.5443 22.5807 43.0754 25.3541Z" fill="#457784"/>
<path id="Vector_339" d="M43.0285 25.7301C42.4189 28.2684 39.9338 29.9607 37.2611 29.4906C34.4947 29.0205 32.6191 26.3882 33.0411 23.6148C33.0411 23.5208 33.088 23.4738 33.088 23.3797C32.8067 22.9097 32.5722 22.3926 32.3846 21.8755C32.2909 21.5935 32.244 21.3115 32.1971 21.0294C31.7751 21.7345 31.4938 22.4866 31.3531 23.3327C30.7435 26.9992 33.2755 30.5247 36.9329 31.1828C40.6371 31.8409 44.1069 29.3496 44.7165 25.6831C44.7634 25.26 44.8103 24.8839 44.8103 24.5079C44.2945 24.931 43.6849 25.354 43.0285 25.7301Z" fill="#5893A0"/>
<path id="Vector_340" d="M39.7463 14.3075C34.1196 13.3204 28.8211 17.0809 27.9302 22.6747C26.9924 28.2685 30.8373 33.6272 36.464 34.6143C42.0907 35.6015 47.3892 31.8409 48.2801 26.2472C49.171 20.6534 45.373 15.2947 39.7463 14.3075ZM43.9194 25.4951C43.4036 28.7385 40.3558 30.8538 37.1205 30.3367C33.8851 29.7727 31.6813 26.7172 32.244 23.4738C32.7598 20.2303 35.8076 18.115 39.0429 18.6321C42.2783 19.1962 44.4352 22.2516 43.9194 25.4951Z" fill="#7BADBF"/>
<path id="Vector_341" d="M45.1855 13.8844L42.5128 12.4742L37.777 16.3758L44.529 19.9953L45.1855 13.8844Z" fill="#7BADBF"/>
<path id="Vector_342" d="M30.3684 35.1314L32.9942 36.5886L37.73 32.64L31.0249 29.0205L30.3684 35.1314Z" fill="#7BADBF"/>
<path id="Vector_343" d="M48.3739 31.935L49.7806 29.3026L45.8888 24.5549L42.2783 31.2769L48.3739 31.935Z" fill="#7BADBF"/>
<path id="Vector_344" d="M27.18 17.0809L25.7264 19.7603L29.6651 24.508L33.2756 17.739L27.18 17.0809Z" fill="#7BADBF"/>
<path id="Vector_345" d="M40.0277 37.2938L42.8879 36.4006L43.4975 30.2898L36.1827 32.4991L40.0277 37.2938Z" fill="#7BADBF"/>
<path id="Vector_346" d="M35.5263 11.7692L32.6192 12.6153L32.0565 18.7261L39.3712 16.5168L35.5263 11.7692Z" fill="#7BADBF"/>
<path id="Vector_347" d="M25.0231 26.7642L25.914 29.6786L32.0096 30.2427L29.8058 22.9097L25.0231 26.7642Z" fill="#7BADBF"/>
<path id="Vector_348" d="M50.4839 22.2517L49.6399 19.3843L43.5443 18.7732L45.7481 26.1062L50.4839 22.2517Z" fill="#7BADBF"/>
<path id="Vector_349" d="M48.2332 26.2472C48.2801 25.9652 48.327 25.6362 48.327 25.3541C47.483 25.7772 46.5452 26.1532 45.5605 26.4823C44.8572 26.7173 44.1539 26.8583 43.4505 26.9523C42.3721 29.3497 39.7932 30.8069 37.0736 30.3368C34.2134 29.8197 32.1502 27.3284 32.1034 24.508C29.6651 22.8158 27.8364 20.4184 26.8987 17.504L25.6795 19.7603L27.8833 22.4397C27.8833 22.5337 27.8364 22.6277 27.8364 22.7217C27.7427 23.3328 27.6958 23.9439 27.6958 24.602L24.9762 26.8113L25.8671 29.7257L29.3838 30.0548C29.7589 30.6188 30.1809 31.1829 30.6967 31.653L30.3216 35.1785L32.9942 36.5887L35.5732 34.4734C35.8545 34.5674 36.1358 34.6144 36.4172 34.6614C36.9329 34.7554 37.4956 34.8024 38.0114 34.8024L40.0276 37.2938L42.9348 36.4006L43.2161 33.4862C44.107 33.0162 44.9041 32.3581 45.6074 31.653L48.4208 31.935L49.8275 29.2557L48.0926 27.1404C48.1395 26.8583 48.1863 26.5763 48.2332 26.2472Z" fill="#659AA8"/>
<path id="Vector_350" d="M39.418 16.2818C34.8698 15.4827 30.6029 18.5382 29.8526 23.0508C29.1024 27.5634 32.1971 31.888 36.6985 32.6871C41.2467 33.4862 45.5136 30.4308 46.2639 25.9182C47.0141 21.3585 43.9663 17.081 39.418 16.2818ZM44.2476 25.5421C43.685 28.9266 40.4965 31.2299 37.0736 30.6188C33.6507 30.0077 31.3531 26.8113 31.9158 23.3798C32.4784 19.9954 35.6669 17.692 39.0898 18.3031C42.4658 18.9142 44.8103 22.1577 44.2476 25.5421Z" fill="#B8E9F4"/>
<path id="Vector_351" d="M43.9663 26.6232C42.9816 29.3966 40.1214 31.1358 37.0736 30.6187C33.6507 30.0077 31.3531 26.8112 31.9158 23.3797C31.9627 23.1447 32.0095 22.9567 32.0564 22.7216C31.9627 22.4866 31.8689 22.2516 31.7751 21.9695C31.4938 21.0764 31.4469 20.1833 31.4938 19.2432C30.6498 20.2773 30.0871 21.5935 29.8526 23.0037C29.1024 27.5163 32.1971 31.8409 36.6985 32.64C41.2467 33.4391 45.5136 30.3837 46.2639 25.8711C46.3108 25.636 46.3108 25.354 46.3576 25.119C45.6543 25.7301 44.8572 26.2471 43.9663 26.6232Z" fill="#9FD4E2"/>
<g id="Group_42">
<path id="Vector_352" d="M32.6192 21.3585C32.1503 22.0636 31.7752 22.9097 31.6346 23.8029C31.0719 27.1873 33.3695 30.4308 36.7924 31.0419C39.465 31.5119 41.9971 30.1957 43.2162 28.0334C41.9033 30.0077 39.5119 31.0889 37.0268 30.6658C33.6039 30.0547 31.3063 26.8583 31.869 23.4268C32.0566 22.6747 32.291 21.9696 32.6192 21.3585Z" fill="#E6FBFF"/>
<path id="Vector_353" d="M39.4181 16.2818C35.9014 15.6708 32.5723 17.363 30.8843 20.2304C32.6192 17.598 35.8076 16.0938 39.1837 16.6579C43.7319 17.457 46.7797 21.7346 46.0295 26.2942C45.8419 27.3284 45.5137 28.2685 44.9979 29.1146C45.6075 28.1745 46.0764 27.0933 46.2639 25.9182C47.0142 21.3585 43.9664 17.0809 39.4181 16.2818Z" fill="#E6FBFF"/>
</g>
<g id="Group_43">
<path id="Vector_354" d="M35.1981 12.1922L37.1674 14.6366C37.9176 14.5896 38.6679 14.6366 39.4181 14.7776C39.5588 14.8246 39.6994 14.8246 39.8401 14.8716L42.1846 12.9443L44.8572 14.3545L44.529 17.2689C45.2792 17.927 45.9357 18.7261 46.4515 19.5723L49.2648 19.8543L50.0619 22.5807L50.3902 22.2986L49.4993 19.3842L46.6859 19.1022C46.1701 18.2561 45.5137 17.457 44.7635 16.7989L45.0917 13.8845L42.419 12.4743L40.0745 14.4015C39.9339 14.3545 39.7932 14.3545 39.6525 14.3075C38.9023 14.1665 38.1052 14.1195 37.4019 14.1665L35.4325 11.7222L32.5723 12.6153L32.5254 12.9913L35.1981 12.1922Z" fill="#B8E9F4"/>
<path id="Vector_355" d="M32.9474 21.4995C32.4316 22.2046 32.1034 23.0037 31.9627 23.9438C31.447 27.1873 33.6507 30.2427 36.8392 30.8068C39.3712 31.2299 41.7626 30.0547 42.9348 27.9394C41.6688 29.7256 39.465 30.7128 37.1205 30.3367C33.8852 29.7727 31.6814 26.7172 32.2441 23.4738C32.3378 22.7217 32.5723 22.0636 32.9474 21.4995Z" fill="#B8E9F4"/>
<path id="Vector_356" d="M30.1809 17.88C30.7436 17.2689 31.3531 16.7519 32.0096 16.3288L32.0565 16.0468C31.4938 16.4698 30.9311 16.8929 30.4622 17.4099L27.18 17.0809L26.9456 17.551L30.1809 17.88Z" fill="#B8E9F4"/>
<path id="Vector_357" d="M48.0926 24.4139C48.1395 25.166 48.0926 25.9181 47.9988 26.6702C47.7644 27.9864 47.3424 29.2085 46.6859 30.2897C47.483 29.1145 48.0457 27.7513 48.2801 26.2001C48.3739 25.495 48.4208 24.8369 48.4208 24.1318L48.0926 24.4139Z" fill="#B8E9F4"/>
</g>
</g>
<path id="Vector_358" d="M150.499 238.529L149.795 237.212L65.676 235.332L66.9889 239.375L150.499 238.529Z" fill="#A5B7FF"/>
<path id="Vector_359" d="M71.3027 134.832C63.2847 139.674 33.7914 153.165 4.34497 127.593C24.8355 143.622 45.0448 146.678 71.3027 134.832Z" fill="#99333D"/>
<path id="Vector_360" d="M62.5813 143.904C56.7202 147.054 35.0574 155.891 12.8319 140.473C28.3053 150.109 43.3568 151.661 62.5813 143.904Z" fill="#99333D"/>
<path id="Vector_361" d="M240.619 117.252C239.729 125.76 233.023 154.105 194.246 156.737C219.801 153.729 234.477 142.4 240.619 117.252Z" fill="#7099B2"/>
<path id="Vector_362" d="M242.823 128.956C241.839 134.879 236.071 155.045 210.001 159.605C227.209 155.703 237.572 146.819 242.823 128.956Z" fill="#7099B2"/>
<path id="Vector_363" d="M33.2287 53.558C35.0105 50.8317 31.3062 48.0583 29.3838 51.3017C27.4613 54.4982 31.4938 56.2844 33.2287 53.558Z" fill="#99333D"/>
<path id="Vector_364" d="M24.8824 52.7589C27.8364 47.3061 20.381 42.5585 17.1457 48.9984C13.9572 55.4383 21.8815 58.2587 24.8824 52.7589Z" fill="#99333D"/>
<path id="Vector_365" d="M219.613 87.8727C222.098 85.8044 219.426 82.0439 216.612 84.5353C213.799 87.0266 217.081 89.941 219.613 87.8727Z" fill="#9EC2DD"/>
<path id="Vector_366" d="M211.876 84.5822C216.331 80.2576 210.657 73.4887 205.64 78.6594C200.623 83.8302 207.375 88.9068 211.876 84.5822Z" fill="#9EC2DD"/>
</g>
</svg>
