<svg width="84" height="84" viewBox="0 0 84 84" fill="none" xmlns="http://www.w3.org/2000/svg">
<g filter="url(#filter0_d_197_143)">
<rect x="24" y="16" width="44" height="44" rx="8" fill="#54B689" shape-rendering="crispEdges"/>
<path fill-rule="evenodd" clip-rule="evenodd" d="M42 32.1186L43.4131 30.7055L45.5371 32.8295L48.3667 30L49.7782 31.4115L47.3137 33.876H52C53.1046 33.876 54 34.7714 54 35.876V42.876C54 43.9805 53.1046 44.876 52 44.876H40C38.8954 44.876 38 43.9805 38 42.876V35.876C38 34.7714 38.8954 33.876 40 33.876H43.7574L42 32.1186ZM52 35.876H40V42.876H52V35.876Z" fill="white"/>
<path d="M42 45.876H50V46.876H42V45.876Z" fill="white"/>
</g>
<defs>
<filter id="filter0_d_197_143" x="0" y="0" width="84" height="84" filterUnits="userSpaceOnUse" color-interpolation-filters="sRGB">
<feFlood flood-opacity="0" result="BackgroundImageFix"/>
<feColorMatrix in="SourceAlpha" type="matrix" values="0 0 0 0 0 0 0 0 0 0 0 0 0 0 0 0 0 0 127 0" result="hardAlpha"/>
<feOffset dx="-4" dy="4"/>
<feGaussianBlur stdDeviation="10"/>
<feComposite in2="hardAlpha" operator="out"/>
<feColorMatrix type="matrix" values="0 0 0 0 0.12549 0 0 0 0 0.705882 0 0 0 0 0.52549 0 0 0 0.12 0"/>
<feBlend mode="normal" in2="BackgroundImageFix" result="effect1_dropShadow_197_143"/>
<feBlend mode="normal" in="SourceGraphic" in2="effect1_dropShadow_197_143" result="shape"/>
</filter>
</defs>
</svg>
